<svg version="1.1" id="Layer_1" xmlns="http://www.w3.org/2000/svg" xmlns:xlink="http://www.w3.org/1999/xlink" x="0px" y="0px"
	 width="100%" viewBox="0 0 547 456" enable-background="new 0 0 547 456" xml:space="preserve">
<path fill="#000000" opacity="1.000000" stroke="none" 
	d="
M325.000000,457.000000 
	C216.666687,457.000000 108.833382,457.000000 1.000058,457.000000 
	C1.000039,305.000061 1.000039,153.000122 1.000019,1.000139 
	C183.333237,1.000093 365.666473,1.000093 547.999756,1.000046 
	C547.999878,152.999863 547.999878,304.999725 547.999939,456.999786 
	C473.833344,457.000000 399.666656,457.000000 325.000000,457.000000 
M123.361717,117.963013 
	C123.145523,118.277168 122.929329,118.591324 122.335228,119.020515 
	C122.079422,119.173157 121.967461,119.397560 121.461739,120.104416 
	C121.271523,120.738075 121.081306,121.371735 120.261467,122.250565 
	C119.514565,123.314873 118.964409,124.625015 117.989922,125.404961 
	C109.512749,132.189697 105.048119,141.906830 100.167000,151.045227 
	C95.514816,159.755005 92.111389,169.244171 89.118790,178.694656 
	C86.425285,187.200623 83.710335,196.065750 83.357620,204.866760 
	C82.726242,220.620926 82.341293,236.438583 84.755211,252.242615 
	C86.783493,265.521881 91.113319,278.002899 96.590973,289.937927 
	C101.144272,299.858948 107.973854,308.735291 114.095886,318.702240 
	C121.835213,329.719910 131.801392,338.650482 141.474045,347.852203 
	C141.763306,348.127380 142.422775,348.013367 143.210571,348.721680 
	C144.867630,349.688568 146.571838,350.583557 148.173843,351.634369 
	C156.641907,357.188904 164.813477,363.259277 173.599197,368.250671 
	C186.641541,375.660370 201.331436,378.484894 216.668945,381.933350 
	C222.115356,382.567871 227.561752,383.202393 233.781631,383.992310 
	C234.540298,384.142212 235.298950,384.292114 236.658737,384.963165 
	C245.756027,384.770050 254.853333,384.576904 264.814026,384.047821 
	C267.469116,384.004395 270.197388,384.344788 272.767395,383.854950 
	C288.825623,380.794647 305.009491,377.965332 319.900604,370.857178 
	C328.619751,366.695129 336.922699,361.661133 346.101746,357.082642 
	C348.144501,355.358154 350.095764,353.506470 352.259430,351.950043 
	C353.942200,350.739563 356.127838,350.175476 357.681580,348.846649 
	C369.391907,338.831116 380.229218,328.008301 389.228455,315.387512 
	C396.168945,305.653992 402.491302,295.673859 406.097015,283.360504 
	C408.392517,277.292145 411.511444,271.393280 412.802826,265.118286 
	C415.104309,253.934784 416.737427,242.564255 417.787933,231.192291 
	C418.371552,224.874481 417.212494,218.395706 416.983459,211.095352 
	C416.313904,205.261734 415.902710,199.384491 414.926239,193.602707 
	C412.034515,176.479721 405.722809,160.570084 396.377716,146.013443 
	C390.673645,137.128342 384.462616,128.480103 377.658600,120.418121 
	C372.343506,114.120316 365.765045,108.888718 359.398468,102.986206 
	C359.398468,102.986206 359.012421,102.876846 358.728760,102.250450 
	C355.122101,99.654770 351.181885,97.414627 347.968292,94.399940 
	C336.024323,83.195274 320.645813,78.252182 306.081970,72.489014 
	C291.620728,66.766464 275.756653,65.494926 259.803894,64.421585 
	C259.178192,64.348030 258.552490,64.274483 257.081818,64.053596 
	C252.210464,64.035988 247.337509,63.928898 242.468063,64.016792 
	C224.601669,64.339272 207.250473,67.505653 190.602188,74.034904 
	C184.216660,76.539223 178.062714,79.634064 171.157745,82.501938 
	C169.588593,83.381218 167.995956,84.221336 166.454193,85.146255 
	C157.795517,90.340721 148.178131,94.127937 140.666290,102.015465 
	C138.396774,103.991501 136.127258,105.967545 133.950394,107.948318 
	C133.950394,107.948318 133.955109,107.855682 133.323517,108.134674 
	C130.558472,110.792534 127.793427,113.450386 124.888390,116.352791 
	C124.888390,116.352791 124.959587,116.625435 124.427979,116.951035 
	C124.205849,117.291389 123.983719,117.631752 123.932198,117.953186 
	C123.932198,117.953186 123.913261,117.782578 123.361717,117.963013 
M318.122223,47.014988 
	C317.425812,46.823051 316.729370,46.631115 315.841370,45.883774 
	C314.006805,45.259811 312.172272,44.635849 310.337708,44.011887 
	C310.190979,44.576279 310.044281,45.140671 309.897552,45.705059 
	C311.854401,46.149048 313.811279,46.593037 316.181030,47.571140 
	C317.052429,47.627632 317.923798,47.684124 319.095703,47.756245 
	C319.280365,47.591076 319.465057,47.425903 319.649719,47.260731 
	C319.370331,47.248329 319.090973,47.235928 318.122223,47.014988 
M268.175842,34.032990 
	C265.397430,34.032990 262.619049,34.032990 259.840637,34.032990 
	C259.849640,34.320236 259.858612,34.607479 259.867615,34.894726 
	C262.931061,34.894726 265.994537,34.894726 269.513794,34.973030 
	C270.536346,35.502853 271.558929,36.032677 272.581482,36.562500 
	C272.739410,36.060337 272.897339,35.558174 273.055298,35.056011 
	C271.727600,34.751122 270.399902,34.446228 268.175842,34.032990 
M260.657745,413.518799 
	C255.647751,413.518799 250.637741,413.518799 245.627747,413.518799 
	C245.629089,414.015533 245.630417,414.512268 245.631760,415.009033 
	C251.176666,414.757019 256.721588,414.505035 262.700653,413.938049 
	C262.301575,413.746796 261.902527,413.555542 260.657745,413.518799 
M160.761047,54.702518 
	C160.346283,54.670605 159.931519,54.638687 159.516754,54.606773 
	C159.526184,54.792965 159.535599,54.979160 159.545013,55.165352 
	C160.116013,55.014214 160.686996,54.863075 161.640625,55.162411 
	C164.650375,54.801582 167.785706,54.825226 170.611755,53.902073 
	C171.846024,53.498898 172.447067,51.157242 173.335663,49.695896 
	C171.726929,49.425087 169.702148,48.410362 168.592102,49.031193 
	C165.899246,50.537254 163.632034,52.804371 160.761047,54.702518 
M514.894104,68.239876 
	C514.664795,67.084587 514.435486,65.929306 514.043030,64.053314 
	C512.697327,58.586716 508.403320,58.279430 504.248260,59.191372 
	C494.271698,61.381001 489.266022,69.145317 484.558472,77.983749 
	C484.352081,78.350800 484.145691,78.717842 483.529236,79.638687 
	C481.349487,83.926880 479.169708,88.215065 476.543976,92.969933 
	C476.292145,93.318367 476.040314,93.666809 475.171967,94.284966 
	C468.673279,97.620941 462.144135,100.900024 455.706421,104.349808 
	C454.653198,104.914200 454.003113,106.230972 452.415497,107.281784 
	C444.086517,108.617279 438.676147,113.542542 435.907928,121.286140 
	C435.018188,123.775017 433.928680,127.890312 435.094208,129.010666 
	C436.764282,130.616013 440.494171,130.773163 443.211700,130.445786 
	C448.449554,129.814774 453.565491,128.206131 458.797668,127.469688 
	C460.139709,127.280792 462.852661,128.646698 463.014099,129.617752 
	C463.891113,134.893692 460.351288,141.179459 455.314636,143.512207 
	C451.891907,145.097458 448.041229,145.781830 444.672180,147.453857 
	C440.510162,149.519440 440.542633,154.082932 444.579803,156.171677 
	C446.878113,157.360748 449.525177,157.879013 451.813873,159.082275 
	C453.579834,160.010696 455.167664,161.400986 456.587067,162.831604 
	C458.063416,164.319656 459.229248,167.443359 460.554382,167.456360 
	C462.787872,167.478241 465.739838,166.175735 467.153870,164.429565 
	C471.511475,159.048508 475.522797,153.341812 479.173065,147.454361 
	C480.739532,144.927872 481.084106,141.643768 482.666138,138.664383 
	C484.003052,137.529816 485.637695,136.606003 486.619019,135.219727 
	C489.191559,131.585510 491.710571,127.872894 493.799988,123.951279 
	C495.227142,121.272728 496.774475,120.561661 499.726379,121.161186 
	C502.567352,121.738197 505.583069,121.675385 508.508545,121.558174 
	C511.907532,121.421997 515.288513,120.689522 518.683533,120.640327 
	C522.373596,120.586853 525.242004,117.425659 524.166687,113.940147 
	C523.637817,112.225845 522.723145,110.630592 522.002930,108.997284 
	C522.002930,108.997284 522.016846,109.018127 521.906494,108.284035 
	C520.217407,101.211441 515.560730,97.335083 508.116364,96.272682 
	C508.075500,95.851379 508.034637,95.430084 508.453461,94.453217 
	C509.697601,91.033989 510.941742,87.614761 512.515503,83.854546 
	C512.723511,83.609207 512.867554,83.330780 512.983154,82.466583 
	C513.609863,77.960640 514.236511,73.454704 514.894104,68.239876 
M48.272266,198.183807 
	C48.176338,201.488083 47.846954,204.810379 48.099735,208.087753 
	C48.200420,209.393143 49.588634,210.599213 50.390713,211.850494 
	C51.608891,210.737091 53.738754,209.724396 53.874924,208.491501 
	C54.289219,204.740417 54.286522,200.850281 53.715851,197.126205 
	C53.464802,195.487915 51.448170,194.120163 49.497704,191.727295 
	C49.030746,194.808304 48.833519,196.109573 48.272266,198.183807 
M60.810745,272.855835 
	C59.476219,270.214478 58.141693,267.573151 56.577335,264.476898 
	C52.641041,270.563782 53.651035,278.347198 58.350811,282.205231 
	C59.071571,282.796906 60.528202,282.961273 61.444164,282.677277 
	C62.031944,282.494965 62.655308,281.080658 62.561928,280.302734 
	C62.289341,278.031891 61.664871,275.803284 60.810745,272.855835 
M72.791710,140.204559 
	C75.632309,135.562653 78.472908,130.920731 81.769234,125.534111 
	C77.907356,124.609116 75.175423,123.201485 73.469772,126.657852 
	C71.877762,129.883942 70.786270,133.355896 69.452171,136.710770 
	C68.400131,139.356384 69.458832,140.448410 72.791710,140.204559 
M375.957275,371.866058 
	C375.690948,375.519623 377.749512,377.193390 380.775452,375.712524 
	C383.958069,374.154968 386.819794,371.667145 389.316864,369.095581 
	C390.624176,367.749298 390.848877,365.351776 391.562500,363.428986 
	C390.947357,363.032715 390.332214,362.636444 389.717102,362.240173 
	C385.251862,365.215515 380.786652,368.190857 375.957275,371.866058 
M375.771423,81.248390 
	C376.620667,81.651382 377.939636,81.837646 378.242004,82.492981 
	C380.035553,86.380066 382.430176,84.615189 385.275116,82.911911 
	C381.302582,79.236549 377.075897,76.016411 372.615112,73.162186 
	C371.620605,72.525856 369.803070,73.175835 368.364441,73.233589 
	C368.726715,74.834297 368.592865,76.916931 369.568726,77.921654 
	C370.996826,79.391914 373.220459,80.089455 375.771423,81.248390 
M452.941650,288.546173 
	C450.081543,288.117096 448.018677,288.925537 446.765533,291.811218 
	C445.195953,295.425507 443.302307,298.899109 441.548553,302.433441 
	C441.783905,302.891663 442.019257,303.349915 442.254639,303.808167 
	C444.184326,303.325775 447.188446,303.441071 447.849457,302.252838 
	C450.160522,298.098511 451.662720,293.494202 452.941650,288.546173 
M51.970608,229.312134 
	C51.882572,226.169632 52.016289,222.996048 51.582348,219.902054 
	C51.436806,218.864334 49.844810,218.029480 48.913956,217.101913 
	C48.291164,218.109741 47.169662,219.099014 47.131321,220.128601 
	C46.958939,224.757538 47.079376,229.398132 47.142925,234.033859 
	C47.148804,234.462494 47.498421,234.886414 47.767056,235.488876 
	C49.089539,235.277130 50.357285,235.074173 51.964123,234.816910 
	C51.964123,233.181808 51.964123,231.708725 51.970608,229.312134 
M440.252319,310.117340 
	C438.969513,310.211456 437.096832,309.797028 436.503357,310.485413 
	C433.518585,313.947357 430.802002,317.651062 428.172729,321.397217 
	C427.789032,321.943909 428.079773,323.480530 428.608246,324.003265 
	C429.120636,324.510132 430.419891,324.584900 431.237885,324.358704 
	C435.543823,323.167969 440.847809,315.502594 440.252319,310.117340 
M360.861359,388.699921 
	C364.349640,386.265594 367.837921,383.831238 371.478729,381.290436 
	C367.625183,377.676270 364.810150,378.984192 362.196838,381.044617 
	C359.221252,383.390717 354.548035,384.531555 355.209747,390.527679 
	C357.150360,389.959198 358.661194,389.516663 360.861359,388.699921 
M462.053436,260.749603 
	C466.260559,257.990387 469.113525,252.083847 467.980621,247.740845 
	C467.695953,246.649490 466.327911,245.423569 465.219696,245.115311 
	C464.516510,244.919724 462.867004,246.111145 462.520996,247.016541 
	C461.390991,249.973083 460.858307,253.158585 459.719971,256.111115 
	C458.839081,258.395844 458.214386,260.204254 462.053436,260.749603 
M453.325256,278.608856 
	C454.005127,279.687744 454.684967,280.766632 455.364807,281.845520 
	C456.587006,280.942352 458.271912,280.290497 458.929108,279.080444 
	C460.080475,276.960632 460.904419,274.546509 461.282990,272.163147 
	C461.548645,270.490631 460.847290,268.664520 460.577789,266.906982 
	C458.907776,268.053680 456.658997,268.852234 455.708740,270.431946 
	C454.412354,272.586945 454.105469,275.337189 453.325256,278.608856 
M388.196899,89.466629 
	C391.153503,95.856888 396.414185,99.614334 401.266937,98.801910 
	C400.760529,92.173805 394.603607,87.326370 388.196899,89.466629 
M143.641785,67.262268 
	C145.531326,65.964203 147.721558,64.933792 149.201492,63.271122 
	C150.140335,62.216324 150.022293,60.220787 150.378220,58.647137 
	C148.743927,58.756474 146.857285,58.386906 145.533035,59.084667 
	C143.418182,60.199009 141.503021,61.854980 139.827774,63.594345 
	C138.211945,65.272018 135.512741,68.641869 135.857849,69.039551 
	C138.604935,72.205200 140.605545,68.476753 143.641785,67.262268 
M289.117157,411.091064 
	C290.266296,410.688660 291.415436,410.286255 293.093079,409.698792 
	C287.525391,403.231628 282.374176,409.139221 277.393555,409.360962 
	C275.767914,409.433350 274.247894,411.877686 272.679535,413.237213 
	C273.007446,413.643494 273.335358,414.049774 273.663239,414.456024 
	C278.600800,413.418304 283.538361,412.380615 289.117157,411.091064 
M223.258179,408.460114 
	C221.815399,408.574463 220.321014,408.500885 218.950272,408.877441 
	C218.194244,409.085114 217.032547,410.183289 217.133575,410.642395 
	C217.333389,411.550446 218.140625,412.781677 218.948303,413.017426 
	C221.922379,413.885559 224.993896,414.815552 228.040131,414.855499 
	C229.349045,414.872681 230.685822,412.767303 232.009949,411.626251 
	C230.835129,410.768280 229.768036,409.619507 228.455490,409.133240 
	C227.115067,408.636658 225.533661,408.790436 223.258179,408.460114 
M59.949852,176.391617 
	C60.076420,174.063980 60.202988,171.736328 60.365643,168.745041 
	C50.850422,171.934311 55.479652,179.229782 53.699223,184.579956 
	C55.541389,184.228729 57.169216,183.478058 58.014015,182.206955 
	C58.990765,180.737335 59.278004,178.809433 59.949852,176.391617 
M59.996883,162.467468 
	C61.472126,162.039017 63.765179,162.047928 64.271439,161.101273 
	C65.881836,158.090027 66.977608,154.765915 67.919365,151.462112 
	C68.145119,150.670166 67.229591,149.112381 66.410278,148.619781 
	C65.874779,148.297806 64.302765,149.007553 63.649612,149.690155 
	C60.350861,153.137634 58.064980,157.018723 59.996883,162.467468 
M89.601067,115.080864 
	C91.555855,112.629539 93.510643,110.178223 95.796814,107.311340 
	C90.245872,106.824348 82.077179,113.355751 81.939713,117.659988 
	C81.908249,118.645180 82.497681,120.102371 83.254120,120.517708 
	C83.861153,120.851013 85.393326,120.186378 86.087830,119.519646 
	C87.261375,118.393036 88.097191,116.914635 89.601067,115.080864 
M124.609177,72.594391 
	C121.847191,76.109100 119.085213,79.623817 115.857254,83.731506 
	C117.856529,83.853859 119.692642,84.547066 120.546326,83.914482 
	C123.671814,81.598450 126.555458,78.928253 129.344940,76.201912 
	C130.299118,75.269333 130.708420,73.779251 131.625549,72.058006 
	C128.828171,72.058006 127.034157,72.058006 124.609177,72.594391 
M359.619965,68.923798 
	C361.140442,68.996422 362.660950,69.069046 364.181427,69.141670 
	C361.113220,65.380981 357.725830,62.370705 354.000824,59.861584 
	C353.083130,59.243431 351.066101,60.257275 349.554474,60.520866 
	C349.953033,61.901905 349.918762,63.924442 350.832947,64.541313 
	C353.372589,66.254990 356.306671,67.384125 359.619965,68.923798 
M77.204651,313.103333 
	C75.854103,312.792633 74.503555,312.481934 73.153023,312.171234 
	C73.031113,313.504395 72.590736,314.901154 72.842125,316.159760 
	C73.961128,321.762268 78.255905,323.647827 82.952858,324.962616 
	C83.384384,324.640900 83.815910,324.319153 84.247437,323.997437 
	C82.105888,320.510468 79.964333,317.023529 77.204651,313.103333 
M468.729523,233.085373 
	C468.809631,231.519974 468.889771,229.954590 469.013123,227.544922 
	C466.926239,228.294495 465.071869,228.378250 464.520416,229.268814 
	C462.924500,231.846176 461.568085,234.663712 460.709625,237.562286 
	C460.348083,238.783112 461.112823,240.807037 462.070160,241.752335 
	C462.554047,242.230164 465.232269,241.533188 465.824188,240.641251 
	C467.151855,238.640762 467.795288,236.186203 468.729523,233.085373 
M56.553844,253.414627 
	C55.724350,250.091019 55.028206,246.723465 53.959114,243.478806 
	C53.729984,242.783432 52.173409,242.269119 51.183392,242.181961 
	C50.635231,242.133682 49.664818,243.036942 49.452427,243.694641 
	C48.600002,246.334351 52.989666,256.038025 56.070358,258.071655 
	C56.256912,256.647003 56.418468,255.413223 56.553844,253.414627 
M409.851135,116.946861 
	C411.122345,115.641182 413.711548,113.680878 413.442902,113.140007 
	C412.080841,110.397621 410.131226,107.881042 408.033478,105.612717 
	C407.449219,104.980965 405.562561,105.179825 404.456512,105.547958 
	C403.817474,105.760643 402.955627,107.428688 403.200226,107.833076 
	C405.053253,110.896423 407.155396,113.809059 409.851135,116.946861 
M340.435760,397.051178 
	C341.605835,396.446045 342.828766,395.922394 343.928345,395.208679 
	C344.734680,394.685303 345.379150,393.912659 346.095734,393.251038 
	C345.285828,392.540405 344.588409,391.493652 343.646240,391.178345 
	C339.911194,389.928528 330.713989,396.043518 329.584839,401.449432 
	C333.361389,399.857178 336.518768,398.526001 340.435760,397.051178 
M421.592102,328.982239 
	C418.754822,332.674072 415.917511,336.365906 413.079010,340.059326 
	C416.409882,342.594666 421.022736,339.528961 428.407837,329.157745 
	C425.883759,329.001038 424.100525,328.890320 421.592102,328.982239 
M137.958176,384.166656 
	C141.689819,386.126190 145.358948,388.226471 149.202576,389.933990 
	C150.033676,390.303192 151.553619,389.367767 152.610123,388.773468 
	C152.818344,388.656311 152.610733,386.927795 152.160004,386.651245 
	C148.972977,384.695892 145.790344,382.623138 142.337601,381.277130 
	C141.277710,380.863953 139.379272,382.601776 137.958176,384.166656 
M107.336235,88.943848 
	C102.241280,91.032356 99.967880,95.626991 97.371574,100.312965 
	C99.561752,100.449417 101.799377,100.422264 103.183174,99.321632 
	C105.921982,97.143242 108.257751,94.432800 110.598976,91.799042 
	C111.133430,91.197815 111.013214,90.014648 111.194305,89.099327 
	C110.142021,89.027382 109.089745,88.955437 107.336235,88.943848 
M125.636963,374.520172 
	C126.911301,374.063568 128.185638,373.606964 130.293549,372.851685 
	C125.657036,368.116730 122.506683,363.048767 115.763245,363.927032 
	C115.382072,364.388153 115.000908,364.849304 114.619743,365.310425 
	C118.094917,368.273834 121.570091,371.237244 125.636963,374.520172 
M100.184578,351.613159 
	C102.769455,354.153290 105.219368,356.861938 108.033646,359.115631 
	C108.741241,359.682281 110.616760,358.790497 111.955528,358.568970 
	C111.591171,357.095398 111.679794,355.177826 110.764633,354.244141 
	C109.057205,352.502167 106.903999,351.004364 104.660355,350.062012 
	C103.534805,349.589294 101.802483,350.561279 100.184578,351.613159 
M71.073334,298.664459 
	C70.050636,296.699310 69.292336,294.513489 67.905670,292.852112 
	C67.079613,291.862427 65.266327,291.696777 63.896870,291.160645 
	C63.528088,292.360077 62.610615,293.717163 62.900887,294.727203 
	C63.575302,297.073853 64.555138,299.451508 65.964401,301.420685 
	C66.727036,302.486298 68.625458,302.739044 70.011520,303.358459 
	C70.441551,302.019135 70.871582,300.679840 71.073334,298.664459 
M329.393402,52.388554 
	C333.546875,56.096470 338.145569,58.689575 344.141022,58.762390 
	C342.189331,52.415878 334.226349,48.808739 329.393402,52.388554 
M94.545311,341.698792 
	C94.712486,337.197418 91.594887,332.230774 87.796417,331.622375 
	C86.834686,331.468292 84.587097,333.450897 84.660316,333.599518 
	C86.024612,336.369141 87.384720,339.235413 89.358322,341.561707 
	C90.101982,342.438263 92.393646,342.001526 94.545311,341.698792 
M160.335480,392.378113 
	C160.881592,395.985474 167.761581,400.696472 173.164215,400.788300 
	C174.242737,400.806610 175.346481,399.341461 177.583282,397.741669 
	C171.077255,395.500275 166.047180,393.767365 160.335480,392.378113 
M467.786804,186.553085 
	C466.409973,190.820999 465.033142,195.088898 463.656311,199.356812 
	C463.959381,199.751175 464.262451,200.145538 464.565552,200.539886 
	C466.328918,199.826736 469.592560,199.139587 469.605438,198.396088 
	C469.674805,194.396744 468.936157,190.383392 467.786804,186.553085 
M405.770935,348.354767 
	C398.510437,353.004822 394.801575,357.738251 396.685822,361.519470 
	C400.650452,357.947266 404.454041,354.603668 408.063690,351.062439 
	C408.282227,350.847992 406.958679,349.061707 405.770935,348.354767 
M309.263428,404.562805 
	C307.374237,405.747253 305.485077,406.931671 303.595917,408.116119 
	C304.029053,408.899719 304.462189,409.683350 304.895355,410.466949 
	C310.352936,408.182129 315.810516,405.897308 321.268066,403.612457 
	C321.073059,403.000488 320.878021,402.388519 320.683014,401.776550 
	C317.106750,402.569702 313.530487,403.362885 309.263428,404.562805 
M206.552429,40.471092 
	C211.459412,40.108070 216.215439,39.251553 221.405945,36.857723 
	C216.497528,34.160744 207.804642,34.788803 205.132065,37.357384 
	C203.997513,38.447792 204.366516,39.906376 206.552429,40.471092 
M188.982605,46.047787 
	C191.915833,45.521225 194.849075,44.994659 199.040268,44.242271 
	C197.100021,42.843273 196.274948,41.776207 195.676071,41.890839 
	C190.636459,42.855465 185.590790,43.873966 180.674088,45.311245 
	C179.848099,45.552696 179.634079,47.887581 178.711975,50.426128 
	C183.047897,48.554909 185.633255,47.439171 188.982605,46.047787 
M295.309570,40.370022 
	C296.170898,40.469810 297.032257,40.569599 297.893585,40.669395 
	C297.698395,39.792805 297.645050,38.218781 297.286407,38.145836 
	C292.966461,37.267216 288.611328,36.529388 284.236053,35.994156 
	C283.659149,35.923592 282.481750,37.123650 282.383881,37.844086 
	C282.294006,38.505768 283.234375,39.911114 283.809906,39.960995 
	C287.410370,40.273033 291.035767,40.296993 295.309570,40.370022 
M238.843323,37.732433 
	C240.477570,37.728264 242.131836,37.869915 243.736374,37.649475 
	C244.395264,37.558952 245.282440,36.772770 245.441498,36.144894 
	C245.569489,35.639690 244.729233,34.326771 244.366989,34.344791 
	C239.480652,34.587929 234.595825,34.937885 229.733704,35.471695 
	C229.248596,35.524960 228.914505,36.953556 228.510330,37.743847 
	C229.335876,38.024288 230.181213,38.588024 230.983276,38.532059 
	C233.388214,38.364239 235.776276,37.954334 238.843323,37.732433 
M192.432236,404.314209 
	C192.375671,405.043060 192.127075,406.360870 192.290726,406.414246 
	C196.015610,407.628571 199.753952,408.847351 203.572205,409.692993 
	C204.390152,409.874146 205.528214,408.609955 207.091644,407.665588 
	C202.160721,404.699524 198.053894,402.363342 192.432236,404.314209 
M469.355255,207.971085 
	C465.952332,211.753540 466.081726,218.906265 470.671112,221.859818 
	C470.405487,216.774628 470.175873,212.378723 469.355255,207.971085 
M255.548416,35.275181 
	C255.548416,35.275181 255.393707,35.607658 255.393707,35.607658 
	C255.393707,35.607658 255.757736,35.530346 255.548416,35.275181 
z"/>
<path fill="#459750" opacity="1.000000" stroke="none" 
	d="
M141.440598,102.148788 
	C148.178131,94.127937 157.795517,90.340721 166.454193,85.146255 
	C167.995956,84.221336 169.588593,83.381218 171.859528,82.406525 
	C174.054230,82.527214 175.547180,82.743317 177.270813,83.197495 
	C185.674164,89.148643 188.443756,96.426521 184.665146,105.858162 
	C181.861755,112.855583 177.661636,119.293427 173.968597,126.110001 
	C173.853485,126.239471 173.709641,126.554695 173.432297,126.750732 
	C158.747986,144.292999 162.622894,166.818939 175.050934,180.918091 
	C175.045715,180.952087 175.114212,180.958603 175.193329,181.292725 
	C176.264328,183.155014 177.141968,184.773331 178.265732,186.197418 
	C189.912918,200.957169 205.778030,210.528580 221.122528,220.983551 
	C221.225662,221.102158 221.500244,221.255203 221.673218,221.543793 
	C223.571487,223.191650 225.296783,224.550934 227.194611,226.171478 
	C228.294876,227.263519 229.222610,228.094315 230.272552,229.238541 
	C232.157089,231.938354 234.052414,234.239075 235.655350,236.728104 
	C239.551804,242.778442 239.386200,247.337555 235.314209,253.211823 
	C234.473221,254.425018 233.717682,255.697449 232.954376,256.965820 
	C232.986008,256.989075 232.938782,256.926514 232.613632,257.024536 
	C229.872025,259.086853 227.455582,261.051086 225.019165,263.004211 
	C224.999191,262.993073 225.011520,263.038269 224.652588,263.107605 
	C223.072006,263.699829 221.795380,264.122894 220.636978,264.760681 
	C204.881531,273.435425 190.559601,272.254456 177.550415,259.105774 
	C173.968124,255.485046 169.710403,252.343048 165.304184,249.764771 
	C154.704971,243.562653 144.080429,247.537766 140.095718,259.073639 
	C138.366516,264.079773 137.271500,269.316711 136.068573,274.490692 
	C132.612503,289.355713 125.498482,302.353363 115.719757,314.060547 
	C114.140572,312.880280 112.482056,312.064514 111.711235,310.734314 
	C103.552162,296.654572 95.307381,282.617340 90.863129,266.753082 
	C84.304512,243.341324 84.599365,219.626251 87.962654,195.875275 
	C90.004028,181.459473 94.918823,168.049866 101.936813,155.045120 
	C108.255936,143.335403 114.920296,132.277222 124.371452,122.868950 
	C126.492004,120.758011 127.429565,117.458702 129.092880,114.439224 
	C130.834381,112.066544 132.394745,109.961113 133.955109,107.855682 
	C133.955109,107.855682 133.950394,107.948318 134.262756,107.994263 
	C136.863632,106.076401 139.152115,104.112595 141.440598,102.148788 
z"/>
<path fill="#459750" opacity="1.000000" stroke="none" 
	d="
M405.819244,284.064545 
	C402.491302,295.673859 396.168945,305.653992 389.228455,315.387512 
	C380.229218,328.008301 369.391907,338.831116 357.681580,348.846649 
	C356.127838,350.175476 353.942200,350.739563 352.259430,351.950043 
	C350.095764,353.506470 348.144501,355.358154 345.366211,356.997314 
	C342.132263,356.915314 339.633911,356.918640 337.135803,356.828918 
	C337.136108,356.735840 337.136169,356.550171 337.004150,356.397827 
	C336.239807,356.185516 335.607513,356.125549 334.594849,356.033783 
	C332.506958,355.536652 330.799377,355.071320 328.870636,354.403748 
	C327.887482,353.987579 327.125519,353.773651 326.061615,353.517395 
	C325.178711,353.293182 324.597748,353.111298 323.822723,352.659973 
	C317.354767,349.330505 311.080872,346.270508 304.556824,343.064117 
	C303.887970,342.520203 303.469208,342.122681 302.931396,341.425446 
	C302.329498,340.452637 301.930359,339.695465 301.351349,339.118927 
	C291.194122,329.004730 285.476166,317.168060 286.872467,302.470947 
	C287.009125,301.032318 286.488708,299.531281 286.306274,297.735291 
	C286.449646,296.992065 286.560059,296.572693 286.908203,295.937012 
	C288.974091,289.664093 290.802338,283.607513 292.669678,277.286438 
	C292.818939,276.683533 292.929047,276.345123 293.339386,275.851624 
	C296.803345,269.570709 300.102295,263.508850 303.047668,257.279816 
	C303.921051,255.432739 303.799225,253.115097 304.189148,250.702179 
	C304.555054,249.611191 304.865204,248.831116 305.484741,247.899002 
	C306.652100,244.963440 307.510071,242.179932 308.410950,239.151047 
	C308.535370,238.582596 308.645508,238.269623 309.016541,237.703369 
	C310.347382,235.030685 311.768738,232.713669 312.488403,230.196060 
	C315.547577,219.494446 317.816193,208.526779 321.526337,198.065109 
	C324.091736,190.831192 328.032043,183.928314 332.287903,177.492447 
	C336.983063,170.392227 342.887756,169.441849 350.607574,173.101654 
	C351.193359,173.379333 351.888733,173.425858 352.702942,173.706131 
	C353.087219,174.019623 353.268280,174.234940 353.457764,174.846680 
	C356.667633,181.141296 359.835693,187.067566 363.123535,193.224457 
	C363.334839,193.788513 363.426361,194.121948 363.453247,194.885208 
	C364.916321,201.242981 366.673828,207.122787 367.928070,213.108063 
	C371.488678,230.099030 376.527191,246.565613 384.937103,261.829376 
	C386.409119,264.501007 388.827881,266.651031 390.932739,269.196716 
	C391.056091,269.351471 391.234192,269.704895 391.279480,270.030914 
	C392.199554,271.241608 393.074310,272.126282 394.062317,273.134949 
	C394.175537,273.258942 394.343567,273.549744 394.399689,273.901855 
	C396.959869,276.529205 399.463928,278.804413 402.218689,281.250732 
	C403.586029,282.302734 404.702637,283.183655 405.819244,284.064545 
z"/>
<path fill="#459650" opacity="1.000000" stroke="none" 
	d="
M260.084503,65.021164 
	C275.756653,65.494926 291.620728,66.766464 306.081970,72.489014 
	C320.645813,78.252182 336.024323,83.195274 347.968292,94.399940 
	C351.181885,97.414627 355.122101,99.654770 358.761902,102.837051 
	C358.537903,103.951553 358.280731,104.479462 357.961182,105.187469 
	C357.898865,105.367561 357.862091,105.746941 357.458008,105.769592 
	C355.704407,105.887505 354.354950,105.982750 352.677917,105.935196 
	C350.228485,106.180542 348.106598,106.568703 345.664246,107.019135 
	C344.909912,107.102150 344.476013,107.122887 343.786560,107.016571 
	C342.337158,107.143547 341.143280,107.397568 339.533508,107.736443 
	C337.424866,107.927940 335.732147,108.034584 333.755005,107.997986 
	C331.965851,108.180565 330.461060,108.506393 328.598083,108.923172 
	C327.503326,109.066460 326.766785,109.118805 325.849213,109.087112 
	C325.081329,109.204056 324.494507,109.405037 323.562866,109.703651 
	C322.088226,110.170494 320.958374,110.539688 319.489746,110.861954 
	C318.462738,110.845985 317.774506,110.876945 316.773560,110.820114 
	C313.669159,112.190430 310.877472,113.648544 307.879028,115.301804 
	C307.009949,115.858116 306.347687,116.219276 305.314850,116.592171 
	C300.311371,120.749168 294.826416,124.264427 291.207123,129.159195 
	C280.835083,143.186554 268.123779,152.831543 250.353958,154.943420 
	C247.809067,155.245850 245.400284,156.693436 242.598236,157.670227 
	C241.821182,157.729202 241.374405,157.729004 240.617645,157.597610 
	C238.553070,157.548172 236.798462,157.629929 234.674286,157.738434 
	C233.568054,157.708145 232.831406,157.651108 231.820190,157.381882 
	C223.767456,155.501938 217.195145,152.093353 211.136200,146.554138 
	C204.771255,140.735168 202.900772,125.770935 210.755554,118.580711 
	C215.871796,113.897324 221.779388,110.064606 227.420990,105.972855 
	C233.056137,101.885773 240.265594,99.024780 244.167480,93.706100 
	C250.584152,84.959518 254.889175,74.663773 260.084503,65.021164 
z"/>
<path fill="#469652" opacity="1.000000" stroke="none" 
	d="
M215.782867,381.806732 
	C201.331436,378.484894 186.641541,375.660370 173.599197,368.250671 
	C164.813477,363.259277 156.641907,357.188904 148.173843,351.634369 
	C146.571838,350.583557 144.867630,349.688568 143.033554,348.074402 
	C144.197235,343.277008 145.010040,338.853882 146.986282,335.032440 
	C151.370224,326.555359 156.337753,318.380066 161.056702,310.072205 
	C161.046112,310.062683 161.065308,310.059448 161.359650,309.903687 
	C168.239426,304.240265 174.824844,298.732574 181.565918,293.184875 
	C181.721588,293.144836 181.992432,292.971741 182.310303,292.921844 
	C183.314758,292.370758 184.001358,291.869537 184.991119,291.322449 
	C186.190140,290.800323 187.085999,290.324066 188.341095,289.794373 
	C197.845505,286.237030 206.952271,282.626373 216.166183,279.313690 
	C218.160355,278.596680 220.539688,278.951019 222.741608,278.811920 
	C222.683670,281.012115 223.392990,283.651154 222.430435,285.333923 
	C218.903610,291.499420 214.836014,297.356842 210.942825,303.311157 
	C207.023300,309.305725 204.289459,315.579224 206.080429,323.355652 
	C206.209473,324.471741 206.344040,325.211060 206.418365,326.338135 
	C207.346985,330.405548 208.007523,334.213226 209.383789,337.741760 
	C214.317108,350.390076 218.277985,363.183624 216.995117,377.333618 
	C216.896667,378.088013 216.875259,378.523529 216.752472,379.152618 
	C216.651093,379.346222 216.578369,379.777191 216.443573,380.014587 
	C216.133469,380.770233 215.958160,381.288483 215.782867,381.806732 
z"/>
<path fill="#252022" opacity="1.000000" stroke="none" 
	d="
M481.983826,138.703888 
	C481.084106,141.643768 480.739532,144.927872 479.173065,147.454361 
	C475.522797,153.341812 471.511475,159.048508 467.153870,164.429565 
	C465.739838,166.175735 462.787872,167.478241 460.554382,167.456360 
	C459.229248,167.443359 458.063416,164.319656 456.587067,162.831604 
	C455.167664,161.400986 453.579834,160.010696 451.813873,159.082275 
	C449.525177,157.879013 446.878113,157.360748 444.579803,156.171677 
	C440.542633,154.082932 440.510162,149.519440 444.672180,147.453857 
	C448.041229,145.781830 451.891907,145.097458 455.314636,143.512207 
	C460.351288,141.179459 463.891113,134.893692 463.014099,129.617752 
	C462.852661,128.646698 460.139709,127.280792 458.797668,127.469688 
	C453.565491,128.206131 448.449554,129.814774 443.211700,130.445786 
	C440.494171,130.773163 436.764282,130.616013 435.094208,129.010666 
	C433.928680,127.890312 435.018188,123.775017 435.907928,121.286140 
	C438.676147,113.542542 444.086517,108.617279 453.095764,107.363823 
	C457.935089,107.066658 462.097168,106.716888 466.251556,106.292046 
	C467.675690,106.146416 469.095032,105.539406 470.491760,105.613091 
	C476.220764,105.915359 477.982513,104.510498 478.575623,98.828400 
	C479.614380,88.876823 483.587952,84.240944 493.117554,82.310287 
	C495.508942,85.531281 495.508942,85.531281 498.421570,83.079544 
	C496.264191,82.649315 494.632721,82.323952 493.023651,81.609016 
	C493.556427,79.487328 494.174286,77.778282 494.551971,76.017715 
	C495.120941,73.365723 495.522003,70.677696 495.997223,68.002495 
	C496.000000,68.000000 496.004913,67.994667 496.369324,68.068771 
	C501.599518,67.561165 506.465302,66.979469 511.448273,66.383759 
	C510.293579,69.941254 509.148621,73.468796 507.999939,76.628616 
	C507.846039,74.809692 507.695801,73.358482 507.545563,71.907272 
	C507.037842,72.039978 506.530151,72.172684 506.022461,72.305389 
	C506.680511,73.871025 507.338593,75.436668 507.906250,77.262207 
	C504.617493,82.356903 501.305908,87.123291 498.310425,92.080704 
	C497.663757,93.150917 498.141083,94.909012 498.126068,96.350517 
	C498.078705,100.898987 498.043396,105.447586 497.922852,109.693100 
	C496.520264,105.653801 494.805939,106.767456 492.985565,108.951874 
	C492.969910,108.905281 492.998779,109.000526 493.338562,109.130890 
	C495.117645,109.508781 496.557007,109.756317 497.867767,110.282326 
	C496.220276,111.902756 494.701355,113.244713 493.521881,114.286758 
	C492.760590,116.598824 492.709656,119.655540 491.193604,120.845245 
	C485.278198,125.487236 484.343018,132.406189 481.983826,138.703888 
M486.237091,90.151558 
	C483.263550,89.475136 482.911255,89.813812 482.260986,95.477959 
	C483.597351,93.883835 484.933746,92.289719 486.237091,90.151558 
z"/>
<path fill="#231D20" opacity="1.000000" stroke="none" 
	d="
M492.998779,82.001274 
	C483.587952,84.240944 479.614380,88.876823 478.575623,98.828400 
	C477.982513,104.510498 476.220764,105.915359 470.491760,105.613091 
	C469.095032,105.539406 467.675690,106.146416 466.251556,106.292046 
	C462.097168,106.716888 457.935089,107.066658 453.471375,107.322937 
	C454.003113,106.230972 454.653198,104.914200 455.706421,104.349808 
	C462.144135,100.900024 468.673279,97.620941 475.690643,93.905060 
	C476.469513,93.184517 476.729736,92.843887 476.989929,92.503250 
	C479.169708,88.215065 481.349487,83.926880 483.913544,79.102173 
	C484.524109,78.212646 484.750336,77.859634 484.976562,77.506622 
	C489.266022,69.145317 494.271698,61.381001 504.248260,59.191372 
	C508.403320,58.279430 512.697327,58.586716 514.009888,64.696442 
	C514.272217,66.542625 514.567688,67.745697 514.863220,68.948761 
	C514.236511,73.454704 513.609863,77.960640 512.849182,82.829277 
	C512.538757,83.526489 512.362305,83.861015 512.185852,84.195534 
	C510.941742,87.614761 509.697601,91.033989 508.015106,94.850159 
	C507.397400,95.830177 507.218018,96.413261 507.038635,96.996353 
	C507.435089,96.963455 507.831512,96.930565 508.227966,96.897675 
	C515.560730,97.335083 520.217407,101.211441 521.946777,108.659363 
	C521.987061,109.034691 521.983032,108.981468 521.983032,108.981468 
	C522.723145,110.630592 523.637817,112.225845 524.166687,113.940147 
	C525.242004,117.425659 522.373596,120.586853 518.683533,120.640327 
	C515.288513,120.689522 511.907532,121.421997 508.508545,121.558174 
	C505.583069,121.675385 502.567352,121.738197 499.726379,121.161186 
	C496.774475,120.561661 495.227142,121.272728 493.799988,123.951279 
	C491.710571,127.872894 489.191559,131.585510 486.619019,135.219727 
	C485.637695,136.606003 484.003052,137.529816 482.325012,138.684143 
	C484.343018,132.406189 485.278198,125.487236 491.193604,120.845245 
	C492.709656,119.655540 492.760590,116.598824 493.521881,114.286758 
	C494.701355,113.244713 496.220276,111.902756 497.869598,110.280396 
	C498.000000,110.000000 498.003418,109.996132 498.003418,109.996132 
	C498.043396,105.447586 498.078705,100.898987 498.126068,96.350517 
	C498.141083,94.909012 497.663757,93.150917 498.310425,92.080704 
	C501.305908,87.123291 504.617493,82.356903 507.907959,77.261047 
	C508.000000,77.000000 508.003662,76.996338 508.003662,76.996338 
	C509.148621,73.468796 510.293579,69.941254 511.448273,66.383759 
	C506.465302,66.979469 501.599518,67.561165 496.356934,68.053123 
	C495.980164,67.963379 495.994446,68.004990 495.994446,68.004990 
	C495.522003,70.677696 495.120941,73.365723 494.551971,76.017715 
	C494.174286,77.778282 493.556427,79.487328 493.023041,81.609718 
	C493.000000,82.000000 492.998779,82.001274 492.998779,82.001274 
M499.905487,111.120651 
	C499.905487,111.120651 499.901794,111.337196 499.901794,111.337196 
	C499.901794,111.337196 499.960236,110.961800 500.017700,110.982300 
	C500.017700,110.982300 500.023376,111.032425 499.905487,111.120651 
M502.412811,107.943199 
	C502.392609,107.665726 502.372375,107.388252 502.352173,107.110786 
	C502.119232,107.302116 501.886261,107.493446 501.574219,107.902504 
	C501.574219,107.902504 501.754669,108.271675 501.754669,108.271675 
	C501.754669,108.271675 502.170532,108.188843 502.412811,107.943199 
M504.535187,103.994553 
	C504.536530,103.711502 504.537872,103.428459 504.539215,103.145416 
	C504.198517,103.301712 503.857788,103.458008 503.377167,103.941849 
	C503.690125,104.070236 504.003052,104.198616 504.535187,103.994553 
M509.347778,79.988411 
	C509.347778,79.988411 509.609314,80.125847 509.609314,80.125847 
	C509.609314,80.125847 509.397522,79.902466 509.347778,79.988411 
M505.601410,99.876007 
	C505.661072,99.928383 505.720764,99.980751 505.601410,99.876007 
M508.481262,62.517181 
	C508.481262,62.517181 508.512421,62.512829 508.481262,62.517181 
M510.483521,72.481384 
	C510.483521,72.481384 510.487885,72.512459 510.483521,72.481384 
z"/>
<path fill="#5C8C5E" opacity="1.000000" stroke="none" 
	d="
M128.911743,114.706482 
	C127.429565,117.458702 126.492004,120.758011 124.371452,122.868950 
	C114.920296,132.277222 108.255936,143.335403 101.936813,155.045120 
	C94.918823,168.049866 90.004028,181.459473 87.962654,195.875275 
	C84.599365,219.626251 84.304512,243.341324 90.863129,266.753082 
	C95.307381,282.617340 103.552162,296.654572 111.711235,310.734314 
	C112.482056,312.064514 114.140572,312.880280 115.632851,314.366638 
	C115.184204,315.890381 114.489670,316.982391 113.795128,318.074371 
	C107.973854,308.735291 101.144272,299.858948 96.590973,289.937927 
	C91.113319,278.002899 86.783493,265.521881 84.755211,252.242615 
	C82.341293,236.438583 82.726242,220.620926 83.357620,204.866760 
	C83.710335,196.065750 86.425285,187.200623 89.118790,178.694656 
	C92.111389,169.244171 95.514816,159.755005 100.167000,151.045227 
	C105.048119,141.906830 109.512749,132.189697 117.989922,125.404961 
	C118.964409,124.625015 119.514565,123.314873 120.662331,121.810532 
	C121.375244,120.811577 121.687294,120.252655 121.999344,119.693733 
	C121.967461,119.397560 122.079422,119.173157 122.855789,118.948685 
	C123.555321,118.512100 123.734291,118.147339 123.913261,117.782578 
	C123.913261,117.782578 123.932198,117.953186 124.135498,117.836494 
	C124.545738,117.355019 124.752663,116.990227 124.959587,116.625435 
	C124.959587,116.625435 124.888390,116.352791 125.307533,116.278473 
	C126.788361,115.704926 127.850044,115.205696 128.911743,114.706482 
z"/>
<path fill="#6DBFBB" opacity="1.000000" stroke="none" 
	d="
M113.945511,318.388306 
	C114.489670,316.982391 115.184204,315.890381 115.965645,314.492310 
	C125.498482,302.353363 132.612503,289.355713 136.068573,274.490692 
	C137.271500,269.316711 138.366516,264.079773 140.095718,259.073639 
	C144.080429,247.537766 154.704971,243.562653 165.304184,249.764771 
	C169.710403,252.343048 173.968124,255.485046 177.550415,259.105774 
	C190.559601,272.254456 204.881531,273.435425 220.636978,264.760681 
	C221.795380,264.122894 223.072006,263.699829 224.563950,263.449951 
	C221.633423,265.540070 218.595245,267.778137 215.199310,269.090210 
	C207.139816,272.204102 198.144363,274.351440 190.438965,270.609924 
	C182.432999,266.722473 175.477951,260.347778 168.712128,254.331177 
	C163.271851,249.493362 157.167313,247.500320 150.496460,250.481323 
	C142.641464,253.991486 140.922348,261.390961 139.237900,268.754059 
	C138.500961,271.975311 137.965546,275.249878 137.082596,278.429169 
	C133.661942,290.745911 127.850220,301.897736 120.314537,312.178101 
	C117.677216,315.776001 117.641159,319.081207 120.868698,322.452240 
	C125.810661,327.613922 130.528534,332.989471 135.434875,338.186127 
	C138.888992,341.844604 140.159027,341.702759 143.129471,337.502716 
	C144.082596,336.155060 144.789261,334.631927 145.595596,333.181824 
	C149.148285,326.793060 152.560471,320.319702 156.336258,314.065796 
	C157.345154,312.394775 159.460144,311.391541 161.067322,310.081757 
	C156.337753,318.380066 151.370224,326.555359 146.986282,335.032440 
	C145.010040,338.853882 144.197235,343.277008 142.883087,347.753967 
	C142.422775,348.013367 141.763306,348.127380 141.474045,347.852203 
	C131.801392,338.650482 121.835213,329.719910 113.945511,318.388306 
z"/>
<path fill="#4A9E78" opacity="1.000000" stroke="none" 
	d="
M259.944214,64.721375 
	C254.889175,74.663773 250.584152,84.959518 244.167480,93.706100 
	C240.265594,99.024780 233.056137,101.885773 227.420990,105.972855 
	C221.779388,110.064606 215.871796,113.897324 210.755554,118.580711 
	C202.900772,125.770935 204.771255,140.735168 211.136200,146.554138 
	C217.195145,152.093353 223.767456,155.501938 231.392258,157.469391 
	C226.029755,156.303497 220.271881,155.799652 215.711273,153.197479 
	C200.164276,144.326736 199.036423,124.188133 213.148285,113.233223 
	C217.464676,109.882454 221.996124,106.696396 226.784073,104.086060 
	C242.235977,95.661865 251.460587,82.513771 256.728760,65.894318 
	C257.224548,65.210152 257.575684,64.705544 257.926788,64.200943 
	C258.552490,64.274483 259.178192,64.348030 259.944214,64.721375 
z"/>
<path fill="#77AFB8" opacity="1.000000" stroke="none" 
	d="
M357.862091,105.746941 
	C357.862091,105.746941 357.898865,105.367561 358.247803,105.150589 
	C358.980469,104.350189 359.364227,103.766769 359.747986,103.183350 
	C365.765045,108.888718 372.343506,114.120316 377.658600,120.418121 
	C384.462616,128.480103 390.673645,137.128342 396.377716,146.013443 
	C405.722809,160.570084 412.034515,176.479721 414.926239,193.602707 
	C415.902710,199.384491 416.313904,205.261734 416.656311,211.544876 
	C416.159241,211.994766 415.989349,211.995132 415.703552,211.631775 
	C414.734344,206.031586 413.900421,200.791870 413.024292,195.559204 
	C410.133759,178.295135 403.356262,162.366455 394.807861,147.363190 
	C385.494843,131.017929 374.149994,116.086456 357.862091,105.746941 
z"/>
<path fill="#74ABB5" opacity="1.000000" stroke="none" 
	d="
M337.135529,356.921997 
	C339.633911,356.918640 342.132263,356.915314 345.021790,356.965698 
	C336.922699,361.661133 328.619751,366.695129 319.900604,370.857178 
	C305.009491,377.965332 288.825623,380.794647 272.767395,383.854950 
	C270.197388,384.344788 267.469116,384.004395 263.925598,384.128967 
	C254.044006,384.287384 245.050812,384.364685 236.057617,384.441986 
	C235.298950,384.292114 234.540298,384.142212 233.393341,383.601349 
	C233.003784,382.792725 233.002518,382.375092 233.462555,381.947113 
	C239.886688,382.229980 245.865234,382.956848 251.809647,382.741394 
	C277.775482,381.800201 302.916046,377.029663 326.241364,365.046234 
	C330.215149,363.004669 333.521057,359.662994 337.135529,356.921997 
z"/>
<path fill="#78B4BE" opacity="1.000000" stroke="none" 
	d="
M257.504303,64.127274 
	C257.575684,64.705544 257.224548,65.210152 256.235840,65.884995 
	C237.651367,65.121506 220.097122,67.450104 202.968903,72.761520 
	C194.886139,75.267952 186.961304,78.283691 178.757355,81.239929 
	C178.046570,81.927277 177.543350,82.443352 177.040115,82.959427 
	C175.547180,82.743317 174.054230,82.527214 172.182281,82.385475 
	C178.062714,79.634064 184.216660,76.539223 190.602188,74.034904 
	C207.250473,67.505653 224.601669,64.339272 242.468063,64.016792 
	C247.337509,63.928898 252.210464,64.035988 257.504303,64.127274 
z"/>
<path fill="#6FA6B0" opacity="1.000000" stroke="none" 
	d="
M415.819489,211.995483 
	C415.989349,211.995132 416.159241,211.994766 416.584015,211.991943 
	C417.212494,218.395706 418.371552,224.874481 417.787933,231.192291 
	C416.737427,242.564255 415.104309,253.934784 412.802826,265.118286 
	C411.511444,271.393280 408.392517,277.292145 405.958130,283.712524 
	C404.702637,283.183655 403.586029,282.302734 402.235107,281.013855 
	C402.000824,280.605865 402.050537,280.134064 402.390747,280.029114 
	C404.429779,277.630341 406.802216,275.576935 407.720337,273.004456 
	C414.762573,253.272614 416.230621,232.747131 415.819489,211.995483 
z"/>
<path fill="#30282D" opacity="1.000000" stroke="none" 
	d="
M48.454281,197.797333 
	C48.833519,196.109573 49.030746,194.808304 49.497704,191.727295 
	C51.448170,194.120163 53.464802,195.487915 53.715851,197.126205 
	C54.286522,200.850281 54.289219,204.740417 53.874924,208.491501 
	C53.738754,209.724396 51.608891,210.737091 50.390713,211.850494 
	C49.588634,210.599213 48.200420,209.393143 48.099735,208.087753 
	C47.846954,204.810379 48.176338,201.488083 48.454281,197.797333 
z"/>
<path fill="#2D242A" opacity="1.000000" stroke="none" 
	d="
M60.994545,273.206970 
	C61.664871,275.803284 62.289341,278.031891 62.561928,280.302734 
	C62.655308,281.080658 62.031944,282.494965 61.444164,282.677277 
	C60.528202,282.961273 59.071571,282.796906 58.350811,282.205231 
	C53.651035,278.347198 52.641041,270.563782 56.577335,264.476898 
	C58.141693,267.573151 59.476219,270.214478 60.994545,273.206970 
z"/>
<path fill="#383136" opacity="1.000000" stroke="none" 
	d="
M72.452179,140.308167 
	C69.458832,140.448410 68.400131,139.356384 69.452171,136.710770 
	C70.786270,133.355896 71.877762,129.883942 73.469772,126.657852 
	C75.175423,123.201485 77.907356,124.609116 81.769234,125.534111 
	C78.472908,130.920731 75.632309,135.562653 72.452179,140.308167 
z"/>
<path fill="#413D3E" opacity="1.000000" stroke="none" 
	d="
M376.139343,371.516113 
	C380.786652,368.190857 385.251862,365.215515 389.717102,362.240173 
	C390.332214,362.636444 390.947357,363.032715 391.562500,363.428986 
	C390.848877,365.351776 390.624176,367.749298 389.316864,369.095581 
	C386.819794,371.667145 383.958069,374.154968 380.775452,375.712524 
	C377.749512,377.193390 375.690948,375.519623 376.139343,371.516113 
z"/>
<path fill="#342E33" opacity="1.000000" stroke="none" 
	d="
M375.438232,81.182358 
	C373.220459,80.089455 370.996826,79.391914 369.568726,77.921654 
	C368.592865,76.916931 368.726715,74.834297 368.364441,73.233589 
	C369.803070,73.175835 371.620605,72.525856 372.615112,73.162186 
	C377.075897,76.016411 381.302582,79.236549 385.275116,82.911911 
	C382.430176,84.615189 380.035553,86.380066 378.242004,82.492981 
	C377.939636,81.837646 376.620667,81.651382 375.438232,81.182358 
z"/>
<path fill="#443B40" opacity="1.000000" stroke="none" 
	d="
M453.206909,288.803497 
	C451.662720,293.494202 450.160522,298.098511 447.849457,302.252838 
	C447.188446,303.441071 444.184326,303.325775 442.254639,303.808167 
	C442.019257,303.349915 441.783905,302.891663 441.548553,302.433441 
	C443.302307,298.899109 445.195953,295.425507 446.765533,291.811218 
	C448.018677,288.925537 450.081543,288.117096 453.206909,288.803497 
z"/>
<path fill="#2A2326" opacity="1.000000" stroke="none" 
	d="
M51.967365,229.773895 
	C51.964123,231.708725 51.964123,233.181808 51.964123,234.816910 
	C50.357285,235.074173 49.089539,235.277130 47.767056,235.488876 
	C47.498421,234.886414 47.148804,234.462494 47.142925,234.033859 
	C47.079376,229.398132 46.958939,224.757538 47.131321,220.128601 
	C47.169662,219.099014 48.291164,218.109741 48.913960,217.101913 
	C49.844810,218.029480 51.436806,218.864334 51.582348,219.902054 
	C52.016289,222.996048 51.882572,226.169632 51.967365,229.773895 
z"/>
<path fill="#3D373A" opacity="1.000000" stroke="none" 
	d="
M440.550934,310.393921 
	C440.847809,315.502594 435.543823,323.167969 431.237885,324.358704 
	C430.419891,324.584900 429.120636,324.510132 428.608246,324.003265 
	C428.079773,323.480530 427.789032,321.943909 428.172729,321.397217 
	C430.802002,317.651062 433.518585,313.947357 436.503357,310.485413 
	C437.096832,309.797028 438.969513,310.211456 440.550934,310.393921 
z"/>
<path fill="#3C3537" opacity="1.000000" stroke="none" 
	d="
M360.516663,388.887024 
	C358.661194,389.516663 357.150360,389.959198 355.209747,390.527679 
	C354.548035,384.531555 359.221252,383.390717 362.196838,381.044617 
	C364.810150,378.984192 367.625183,377.676270 371.478729,381.290436 
	C367.837921,383.831238 364.349640,386.265594 360.516663,388.887024 
z"/>
<path fill="#3D373A" opacity="1.000000" stroke="none" 
	d="
M461.687714,260.879639 
	C458.214386,260.204254 458.839081,258.395844 459.719971,256.111115 
	C460.858307,253.158585 461.390991,249.973083 462.520996,247.016541 
	C462.867004,246.111145 464.516510,244.919724 465.219696,245.115311 
	C466.327911,245.423569 467.695953,246.649490 467.980621,247.740845 
	C469.113525,252.083847 466.260559,257.990387 461.687714,260.879639 
z"/>
<path fill="#352A2E" opacity="1.000000" stroke="none" 
	d="
M453.349792,278.220551 
	C454.105469,275.337189 454.412354,272.586945 455.708740,270.431946 
	C456.658997,268.852234 458.907776,268.053680 460.577789,266.906982 
	C460.847290,268.664520 461.548645,270.490631 461.282990,272.163147 
	C460.904419,274.546509 460.080475,276.960632 458.929108,279.080444 
	C458.271912,280.290497 456.587006,280.942352 455.364807,281.845520 
	C454.684967,280.766632 454.005127,279.687744 453.349792,278.220551 
z"/>
<path fill="#352A2E" opacity="1.000000" stroke="none" 
	d="
M388.426788,89.170128 
	C394.603607,87.326370 400.760529,92.173805 401.266937,98.801910 
	C396.414185,99.614334 391.153503,95.856888 388.426788,89.170128 
z"/>
<path fill="#463F42" opacity="1.000000" stroke="none" 
	d="
M143.324402,67.465195 
	C140.605545,68.476753 138.604935,72.205200 135.857849,69.039551 
	C135.512741,68.641869 138.211945,65.272018 139.827774,63.594345 
	C141.503021,61.854980 143.418182,60.199009 145.533035,59.084667 
	C146.857285,58.386906 148.743927,58.756474 150.378235,58.647141 
	C150.022293,60.220787 150.140335,62.216324 149.201492,63.271122 
	C147.721558,64.933792 145.531326,65.964203 143.324402,67.465195 
z"/>
<path fill="#30282D" opacity="1.000000" stroke="none" 
	d="
M288.796539,411.216980 
	C283.538361,412.380615 278.600800,413.418304 273.663239,414.456024 
	C273.335358,414.049774 273.007446,413.643494 272.679535,413.237213 
	C274.247894,411.877686 275.767914,409.433350 277.393555,409.360962 
	C282.374176,409.139221 287.525391,403.231628 293.093079,409.698792 
	C291.415436,410.286255 290.266296,410.688660 288.796539,411.216980 
z"/>
<path fill="#30282D" opacity="1.000000" stroke="none" 
	d="
M223.657959,408.559814 
	C225.533661,408.790436 227.115067,408.636658 228.455490,409.133240 
	C229.768036,409.619507 230.835129,410.768280 232.009949,411.626251 
	C230.685822,412.767303 229.349045,414.872681 228.040131,414.855499 
	C224.993896,414.815552 221.922379,413.885559 218.948303,413.017426 
	C218.140625,412.781677 217.333389,411.550446 217.133575,410.642395 
	C217.032547,410.183289 218.194244,409.085114 218.950272,408.877441 
	C220.321014,408.500885 221.815399,408.574463 223.657959,408.559814 
z"/>
<path fill="#33272F" opacity="1.000000" stroke="none" 
	d="
M59.907234,176.736053 
	C59.278004,178.809433 58.990765,180.737335 58.014015,182.206955 
	C57.169216,183.478058 55.541389,184.228729 53.699223,184.579956 
	C55.479652,179.229782 50.850422,171.934311 60.365643,168.745041 
	C60.202988,171.736328 60.076420,174.063980 59.907234,176.736053 
z"/>
<path fill="#342E33" opacity="1.000000" stroke="none" 
	d="
M59.705261,162.279541 
	C58.064980,157.018723 60.350861,153.137634 63.649612,149.690155 
	C64.302765,149.007553 65.874779,148.297806 66.410278,148.619781 
	C67.229591,149.112381 68.145119,150.670166 67.919365,151.462112 
	C66.977608,154.765915 65.881836,158.090027 64.271439,161.101273 
	C63.765179,162.047928 61.472126,162.039017 59.705261,162.279541 
z"/>
<path fill="#383136" opacity="1.000000" stroke="none" 
	d="
M89.338043,115.332504 
	C88.097191,116.914635 87.261375,118.393036 86.087830,119.519646 
	C85.393326,120.186378 83.861153,120.851013 83.254120,120.517708 
	C82.497681,120.102371 81.908249,118.645180 81.939713,117.659988 
	C82.077179,113.355751 90.245872,106.824348 95.796814,107.311340 
	C93.510643,110.178223 91.555855,112.629539 89.338043,115.332504 
z"/>
<path fill="#41393D" opacity="1.000000" stroke="none" 
	d="
M124.924667,72.326202 
	C127.034157,72.058006 128.828171,72.058006 131.625549,72.058006 
	C130.708420,73.779251 130.299118,75.269333 129.344940,76.201912 
	C126.555458,78.928253 123.671814,81.598450 120.546326,83.914482 
	C119.692642,84.547066 117.856529,83.853859 115.857254,83.731506 
	C119.085213,79.623817 121.847191,76.109100 124.924667,72.326202 
z"/>
<path fill="#2E272A" opacity="1.000000" stroke="none" 
	d="
M359.352417,68.834000 
	C356.306671,67.384125 353.372589,66.254990 350.832947,64.541313 
	C349.918762,63.924442 349.953033,61.901905 349.554474,60.520866 
	C351.066101,60.257275 353.083130,59.243431 354.000824,59.861584 
	C357.725830,62.370705 361.113220,65.380981 364.181427,69.141670 
	C362.660950,69.069046 361.140442,68.996422 359.352417,68.834000 
z"/>
<path fill="#332F32" opacity="1.000000" stroke="none" 
	d="
M77.513718,313.319946 
	C79.964333,317.023529 82.105888,320.510468 84.247437,323.997437 
	C83.815910,324.319153 83.384384,324.640900 82.952858,324.962616 
	C78.255905,323.647827 73.961128,321.762268 72.842125,316.159760 
	C72.590736,314.901154 73.031113,313.504395 73.153015,312.171234 
	C74.503555,312.481934 75.854103,312.792633 77.513718,313.319946 
z"/>
<path fill="#3C3339" opacity="1.000000" stroke="none" 
	d="
M468.723450,233.500946 
	C467.795288,236.186203 467.151855,238.640762 465.824188,240.641251 
	C465.232269,241.533188 462.554047,242.230164 462.070160,241.752335 
	C461.112823,240.807037 460.348083,238.783112 460.709625,237.562286 
	C461.568085,234.663712 462.924500,231.846176 464.520416,229.268814 
	C465.071869,228.378250 466.926239,228.294495 469.013123,227.544922 
	C468.889771,229.954590 468.809631,231.519974 468.723450,233.500946 
z"/>
<path fill="#272024" opacity="1.000000" stroke="none" 
	d="
M56.566936,253.797028 
	C56.418468,255.413223 56.256912,256.647003 56.070358,258.071655 
	C52.989666,256.038025 48.600002,246.334351 49.452427,243.694641 
	C49.664818,243.036942 50.635231,242.133682 51.183392,242.181961 
	C52.173409,242.269119 53.729984,242.783432 53.959114,243.478806 
	C55.028206,246.723465 55.724350,250.091019 56.566936,253.797028 
z"/>
<path fill="#383136" opacity="1.000000" stroke="none" 
	d="
M409.515503,116.857780 
	C407.155396,113.809059 405.053253,110.896423 403.200226,107.833076 
	C402.955627,107.428688 403.817474,105.760643 404.456512,105.547958 
	C405.562561,105.179825 407.449219,104.980965 408.033478,105.612717 
	C410.131226,107.881042 412.080841,110.397621 413.442902,113.140007 
	C413.711548,113.680878 411.122345,115.641182 409.515503,116.857780 
z"/>
<path fill="#4E484C" opacity="1.000000" stroke="none" 
	d="
M340.055969,397.122986 
	C336.518768,398.526001 333.361389,399.857178 329.584839,401.449432 
	C330.713989,396.043518 339.911194,389.928528 343.646240,391.178345 
	C344.588409,391.493652 345.285828,392.540405 346.095764,393.251038 
	C345.379150,393.912659 344.734680,394.685303 343.928345,395.208679 
	C342.828766,395.922394 341.605835,396.446045 340.055969,397.122986 
z"/>
<path fill="#3D373A" opacity="1.000000" stroke="none" 
	d="
M421.954712,328.880920 
	C424.100525,328.890320 425.883759,329.001038 428.407837,329.157745 
	C421.022736,339.528961 416.409882,342.594666 413.079010,340.059326 
	C415.917511,336.365906 418.754822,332.674072 421.954712,328.880920 
z"/>
<path fill="#3D373A" opacity="1.000000" stroke="none" 
	d="
M137.911499,383.760651 
	C139.379272,382.601776 141.277710,380.863953 142.337601,381.277130 
	C145.790344,382.623138 148.972977,384.695892 152.160004,386.651245 
	C152.610733,386.927795 152.818344,388.656311 152.610123,388.773468 
	C151.553619,389.367767 150.033676,390.303192 149.202576,389.933990 
	C145.358948,388.226471 141.689819,386.126190 137.911499,383.760651 
z"/>
<path fill="#463F42" opacity="1.000000" stroke="none" 
	d="
M107.686844,88.913666 
	C109.089745,88.955437 110.142021,89.027382 111.194305,89.099319 
	C111.013214,90.014648 111.133430,91.197815 110.598976,91.799042 
	C108.257751,94.432800 105.921982,97.143242 103.183174,99.321632 
	C101.799377,100.422264 99.561752,100.449417 97.371574,100.312965 
	C99.967880,95.626991 102.241280,91.032356 107.686844,88.913666 
z"/>
<path fill="#2E272A" opacity="1.000000" stroke="none" 
	d="
M125.341110,374.360413 
	C121.570091,371.237244 118.094917,368.273834 114.619743,365.310425 
	C115.000908,364.849304 115.382072,364.388153 115.763245,363.927032 
	C122.506683,363.048767 125.657036,368.116730 130.293549,372.851685 
	C128.185638,373.606964 126.911301,374.063568 125.341110,374.360413 
z"/>
<path fill="#332F32" opacity="1.000000" stroke="none" 
	d="
M100.264580,351.246521 
	C101.802483,350.561279 103.534805,349.589294 104.660355,350.062012 
	C106.903999,351.004364 109.057205,352.502167 110.764633,354.244141 
	C111.679794,355.177826 111.591171,357.095398 111.955536,358.568970 
	C110.616760,358.790497 108.741241,359.682281 108.033646,359.115631 
	C105.219368,356.861938 102.769455,354.153290 100.264580,351.246521 
z"/>
<path fill="#2E272A" opacity="1.000000" stroke="none" 
	d="
M71.187469,299.002502 
	C70.871582,300.679840 70.441551,302.019135 70.011520,303.358459 
	C68.625458,302.739044 66.727036,302.486298 65.964401,301.420685 
	C64.555138,299.451508 63.575302,297.073853 62.900887,294.727203 
	C62.610615,293.717163 63.528088,292.360077 63.896870,291.160645 
	C65.266327,291.696777 67.079613,291.862427 67.905670,292.852112 
	C69.292336,294.513489 70.050636,296.699310 71.187469,299.002502 
z"/>
<path fill="#383136" opacity="1.000000" stroke="none" 
	d="
M329.507080,52.049068 
	C334.226349,48.808739 342.189331,52.415878 344.141022,58.762390 
	C338.145569,58.689575 333.546875,56.096470 329.507080,52.049068 
z"/>
<path fill="#2E272A" opacity="1.000000" stroke="none" 
	d="
M94.262466,341.931152 
	C92.393646,342.001526 90.101982,342.438263 89.358322,341.561707 
	C87.384720,339.235413 86.024612,336.369141 84.660316,333.599518 
	C84.587097,333.450897 86.834686,331.468292 87.796417,331.622375 
	C91.594887,332.230774 94.712486,337.197418 94.262466,341.931152 
z"/>
<path fill="#332F32" opacity="1.000000" stroke="none" 
	d="
M160.676300,392.206299 
	C166.047180,393.767365 171.077255,395.500275 177.583282,397.741669 
	C175.346481,399.341461 174.242737,400.806610 173.164215,400.788300 
	C167.761581,400.696472 160.881592,395.985474 160.676300,392.206299 
z"/>
<path fill="#2D242A" opacity="1.000000" stroke="none" 
	d="
M468.131592,186.463989 
	C468.936157,190.383392 469.674805,194.396744 469.605438,198.396088 
	C469.592560,199.139587 466.328918,199.826736 464.565552,200.539886 
	C464.262451,200.145538 463.959381,199.751175 463.656311,199.356812 
	C465.033142,195.088898 466.409973,190.820999 468.131592,186.463989 
z"/>
<path fill="#41393D" opacity="1.000000" stroke="none" 
	d="
M406.061829,348.180786 
	C406.958679,349.061707 408.282227,350.847992 408.063690,351.062439 
	C404.454041,354.603668 400.650452,357.947266 396.685822,361.519470 
	C394.801575,357.738251 398.510437,353.004822 406.061829,348.180786 
z"/>
<path fill="#3C3537" opacity="1.000000" stroke="none" 
	d="
M309.608826,404.359436 
	C313.530487,403.362885 317.106750,402.569702 320.683014,401.776550 
	C320.878021,402.388519 321.073059,403.000488 321.268066,403.612457 
	C315.810516,405.897308 310.352936,408.182129 304.895355,410.466949 
	C304.462189,409.683350 304.029053,408.899719 303.595917,408.116119 
	C305.485077,406.931671 307.374237,405.747253 309.608826,404.359436 
z"/>
<path fill="#413D3E" opacity="1.000000" stroke="none" 
	d="
M206.269714,40.603943 
	C204.366516,39.906376 203.997513,38.447792 205.132065,37.357384 
	C207.804642,34.788803 216.497528,34.160744 221.405945,36.857723 
	C216.215439,39.251553 211.459412,40.108070 206.269714,40.603943 
z"/>
<path fill="#41393D" opacity="1.000000" stroke="none" 
	d="
M188.600616,46.185608 
	C185.633255,47.439171 183.047897,48.554909 178.711975,50.426128 
	C179.634079,47.887581 179.848099,45.552696 180.674088,45.311245 
	C185.590790,43.873966 190.636459,42.855465 195.676071,41.890839 
	C196.274948,41.776207 197.100021,42.843273 199.040268,44.242271 
	C194.849075,44.994659 191.915833,45.521225 188.600616,46.185608 
z"/>
<path fill="#3D373A" opacity="1.000000" stroke="none" 
	d="
M294.981262,40.393177 
	C291.035767,40.296993 287.410370,40.273033 283.809906,39.960995 
	C283.234375,39.911114 282.294006,38.505768 282.383881,37.844086 
	C282.481750,37.123650 283.659149,35.923592 284.236053,35.994156 
	C288.611328,36.529388 292.966461,37.267216 297.286407,38.145836 
	C297.645050,38.218781 297.698395,39.792805 297.893585,40.669392 
	C297.032257,40.569599 296.170898,40.469810 294.981262,40.393177 
z"/>
<path fill="#3C3339" opacity="1.000000" stroke="none" 
	d="
M238.507111,37.685677 
	C235.776276,37.954334 233.388214,38.364239 230.983276,38.532059 
	C230.181213,38.588024 229.335876,38.024288 228.510330,37.743847 
	C228.914505,36.953556 229.248596,35.524960 229.733704,35.471695 
	C234.595825,34.937885 239.480652,34.587929 244.366989,34.344791 
	C244.729233,34.326771 245.569489,35.639690 245.441498,36.144894 
	C245.282440,36.772770 244.395264,37.558952 243.736374,37.649475 
	C242.131836,37.869915 240.477570,37.728264 238.507111,37.685677 
z"/>
<path fill="#2E272A" opacity="1.000000" stroke="none" 
	d="
M192.672668,404.088104 
	C198.053894,402.363342 202.160721,404.699524 207.091644,407.665588 
	C205.528214,408.609955 204.390152,409.874146 203.572205,409.692993 
	C199.753952,408.847351 196.015610,407.628571 192.290726,406.414246 
	C192.127075,406.360870 192.375671,405.043060 192.672668,404.088104 
z"/>
<path fill="#180F15" opacity="1.000000" stroke="none" 
	d="
M469.650757,207.976944 
	C470.175873,212.378723 470.405487,216.774628 470.671112,221.859818 
	C466.081726,218.906265 465.952332,211.753540 469.650757,207.976944 
z"/>
<path fill="#41393D" opacity="1.000000" stroke="none" 
	d="
M161.193329,54.764832 
	C163.632034,52.804371 165.899246,50.537254 168.592102,49.031193 
	C169.702148,48.410362 171.726929,49.425087 173.335663,49.695900 
	C172.447067,51.157242 171.846024,53.498898 170.611755,53.902073 
	C167.785706,54.825226 164.650375,54.801582 161.432495,54.953438 
	C161.224365,54.744465 161.193329,54.764832 161.193329,54.764832 
z"/>
<path fill="#6FA6B0" opacity="1.000000" stroke="none" 
	d="
M233.001251,381.957397 
	C233.002518,382.375092 233.003784,382.792725 233.006622,383.523651 
	C227.561752,383.202393 222.115356,382.567871 216.225891,381.870056 
	C215.958160,381.288483 216.133469,380.770233 216.813690,380.038116 
	C217.565323,379.833832 217.812027,379.843414 218.466980,379.913269 
	C223.583893,380.634796 228.292572,381.296112 233.001251,381.957397 
z"/>
<path fill="#B1D9E1" opacity="1.000000" stroke="none" 
	d="
M236.358185,384.702576 
	C245.050812,384.364685 254.044006,384.287384 263.493896,384.296936 
	C254.853333,384.576904 245.756027,384.770050 236.358185,384.702576 
z"/>
<path fill="#92B693" opacity="1.000000" stroke="none" 
	d="
M129.092865,114.439224 
	C127.850044,115.205696 126.788361,115.704926 125.377533,116.156204 
	C127.793427,113.450386 130.558472,110.792534 133.639313,107.995178 
	C132.394745,109.961113 130.834381,112.066544 129.092865,114.439224 
z"/>
<path fill="#463F42" opacity="1.000000" stroke="none" 
	d="
M262.266510,414.253052 
	C256.721588,414.505035 251.176666,414.757019 245.631760,415.009033 
	C245.630417,414.512268 245.629089,414.015533 245.627747,413.518799 
	C250.637741,413.518799 255.647751,413.518799 261.270203,413.664734 
	C262.010620,413.958130 262.138580,414.105591 262.266510,414.253052 
z"/>
<path fill="#92B693" opacity="1.000000" stroke="none" 
	d="
M141.053436,102.082130 
	C139.152115,104.112595 136.863632,106.076401 134.216431,107.991898 
	C136.127258,105.967545 138.396774,103.991501 141.053436,102.082130 
z"/>
<path fill="#231D20" opacity="1.000000" stroke="none" 
	d="
M315.768127,47.037025 
	C313.811279,46.593037 311.854401,46.149048 309.897552,45.705059 
	C310.044281,45.140671 310.190979,44.576279 310.337708,44.011887 
	C312.172272,44.635849 314.006805,45.259811 315.885834,46.318031 
	C315.930298,46.752285 315.768127,47.037022 315.768127,47.037025 
z"/>
<path fill="#342E33" opacity="1.000000" stroke="none" 
	d="
M269.057983,34.894726 
	C265.994537,34.894726 262.931061,34.894726 259.867615,34.894726 
	C259.858612,34.607479 259.849640,34.320236 259.840637,34.032990 
	C262.619049,34.032990 265.397430,34.032990 268.618835,34.275482 
	C269.061798,34.517975 269.057983,34.894726 269.057983,34.894726 
z"/>
<path fill="#252022" opacity="1.000000" stroke="none" 
	d="
M514.878662,68.594315 
	C514.567688,67.745697 514.272217,66.542625 514.091431,65.056793 
	C514.435486,65.929306 514.664795,67.084587 514.878662,68.594315 
z"/>
<path fill="#4E484C" opacity="1.000000" stroke="none" 
	d="
M269.285889,34.933876 
	C269.057983,34.894726 269.061798,34.517975 269.067017,34.329659 
	C270.399902,34.446228 271.727600,34.751122 273.055298,35.056011 
	C272.897339,35.558174 272.739410,36.060337 272.581482,36.562500 
	C271.558929,36.032677 270.536346,35.502853 269.285889,34.933876 
z"/>
<path fill="#4E484C" opacity="1.000000" stroke="none" 
	d="
M508.172180,96.585175 
	C507.831512,96.930565 507.435089,96.963455 507.038635,96.996353 
	C507.218018,96.413261 507.397400,95.830177 507.785278,95.127945 
	C508.034637,95.430084 508.075500,95.851379 508.172180,96.585175 
z"/>
<path fill="#41393D" opacity="1.000000" stroke="none" 
	d="
M161.241180,54.728203 
	C160.686996,54.863075 160.116013,55.014214 159.545013,55.165352 
	C159.535599,54.979160 159.526184,54.792965 159.516754,54.606773 
	C159.931519,54.638687 160.346283,54.670605 160.977188,54.733673 
	C161.193329,54.764832 161.224365,54.744465 161.241180,54.728203 
z"/>
<path fill="#231D20" opacity="1.000000" stroke="none" 
	d="
M318.811584,47.223526 
	C319.090973,47.235928 319.370331,47.248329 319.649719,47.260735 
	C319.465057,47.425903 319.280365,47.591076 318.940704,47.619026 
	C318.785706,47.481804 318.811584,47.223526 318.811584,47.223526 
z"/>
<path fill="#463F42" opacity="1.000000" stroke="none" 
	d="
M318.466919,47.119255 
	C318.811584,47.223526 318.785706,47.481804 318.790466,47.611214 
	C317.923798,47.684124 317.052429,47.627632 315.974579,47.304081 
	C315.768127,47.037022 315.930298,46.752285 315.981628,46.595734 
	C316.729370,46.631115 317.425812,46.823051 318.466919,47.119255 
z"/>
<path fill="#4A9E78" opacity="1.000000" stroke="none" 
	d="
M359.573242,103.084778 
	C359.364227,103.766769 358.980469,104.350189 358.310120,104.970490 
	C358.280731,104.479462 358.537903,103.951553 358.903748,103.150253 
	C359.012421,102.876846 359.398468,102.986206 359.573242,103.084778 
z"/>
<path fill="#252022" opacity="1.000000" stroke="none" 
	d="
M512.350708,84.025040 
	C512.362305,83.861015 512.538757,83.526489 512.831421,83.105621 
	C512.867554,83.330780 512.723511,83.609207 512.350708,84.025040 
z"/>
<path fill="#92B693" opacity="1.000000" stroke="none" 
	d="
M121.730545,119.899078 
	C121.687294,120.252655 121.375244,120.811577 120.977142,121.687950 
	C121.081306,121.371735 121.271523,120.738075 121.730545,119.899078 
z"/>
<path fill="#342E33" opacity="1.000000" stroke="none" 
	d="
M255.653076,35.402763 
	C255.757736,35.530346 255.393707,35.607658 255.393707,35.607658 
	C255.393707,35.607658 255.548416,35.275181 255.653076,35.402763 
z"/>
<path fill="#463F42" opacity="1.000000" stroke="none" 
	d="
M261.693054,413.587463 
	C261.902527,413.555542 262.301575,413.746796 262.483582,414.095551 
	C262.138580,414.105591 262.010620,413.958130 261.693054,413.587463 
z"/>
<path fill="#252022" opacity="1.000000" stroke="none" 
	d="
M484.767517,77.745186 
	C484.750336,77.859634 484.524109,78.212646 484.118591,78.825272 
	C484.145691,78.717842 484.352081,78.350800 484.767517,77.745186 
z"/>
<path fill="#252022" opacity="1.000000" stroke="none" 
	d="
M476.766968,92.736588 
	C476.729736,92.843887 476.469513,93.184517 475.998901,93.770195 
	C476.040314,93.666809 476.292145,93.318367 476.766968,92.736588 
z"/>
<path fill="#92B693" opacity="1.000000" stroke="none" 
	d="
M124.693787,116.788239 
	C124.752663,116.990227 124.545738,117.355019 124.050201,117.845955 
	C123.983719,117.631752 124.205849,117.291389 124.693787,116.788239 
z"/>
<path fill="#92B693" opacity="1.000000" stroke="none" 
	d="
M123.637489,117.872795 
	C123.734291,118.147339 123.555321,118.512100 123.044739,118.891174 
	C122.929329,118.591324 123.145523,118.277168 123.637489,117.872795 
z"/>
<path fill="#6DC4DC" opacity="1.000000" stroke="none" 
	d="
M233.462555,381.947083 
	C228.292572,381.296112 223.583893,380.634796 218.274017,379.755005 
	C217.399841,379.344025 217.126846,379.151520 216.853851,378.959015 
	C216.875259,378.523529 216.896667,378.088013 217.239532,377.093567 
	C218.173477,374.175903 219.398926,371.790985 219.299347,369.462769 
	C218.634857,353.927032 213.459976,339.658813 206.478607,325.950348 
	C206.344040,325.211060 206.209473,324.471741 206.221344,323.001404 
	C207.670578,313.748993 210.889877,306.227112 216.320602,299.330383 
	C219.912872,294.768402 222.902771,289.308258 224.576477,283.770874 
	C226.497757,277.414368 222.699905,274.749969 216.420120,277.049286 
	C208.648560,279.894806 200.796890,282.534180 193.110794,285.591827 
	C191.147491,286.372894 189.678162,288.395599 187.981873,289.847839 
	C187.085999,290.324066 186.190140,290.800323 184.669739,291.387451 
	C183.360931,291.989471 182.676682,292.480591 181.992432,292.971741 
	C181.992432,292.971741 181.721588,293.144836 181.183350,293.235474 
	C172.143509,296.592896 164.504257,300.868805 161.065308,310.059448 
	C161.065308,310.059448 161.046112,310.062683 161.056717,310.072205 
	C159.460144,311.391541 157.345154,312.394775 156.336258,314.065796 
	C152.560471,320.319702 149.148285,326.793060 145.595596,333.181824 
	C144.789261,334.631927 144.082596,336.155060 143.129471,337.502716 
	C140.159027,341.702759 138.888992,341.844604 135.434875,338.186127 
	C130.528534,332.989471 125.810661,327.613922 120.868698,322.452240 
	C117.641159,319.081207 117.677216,315.776001 120.314537,312.178101 
	C127.850220,301.897736 133.661942,290.745911 137.082596,278.429169 
	C137.965546,275.249878 138.500961,271.975311 139.237900,268.754059 
	C140.922348,261.390961 142.641464,253.991486 150.496460,250.481323 
	C157.167313,247.500320 163.271851,249.493362 168.712128,254.331177 
	C175.477951,260.347778 182.432999,266.722473 190.438965,270.609924 
	C198.144363,274.351440 207.139816,272.204102 215.199310,269.090210 
	C218.595245,267.778137 221.633423,265.540070 224.922882,263.380615 
	C225.011520,263.038269 224.999191,262.993073 225.399628,262.979248 
	C229.409607,262.406433 232.592911,261.343567 232.938782,256.926514 
	C232.938782,256.926514 232.986008,256.989075 233.278137,256.857880 
	C243.276245,249.890213 241.344589,234.187042 230.150360,228.925110 
	C229.222610,228.094315 228.294876,227.263519 227.077881,225.855743 
	C225.025833,223.937561 223.263046,222.596375 221.500244,221.255188 
	C221.500244,221.255203 221.225662,221.102158 221.006226,220.675812 
	C219.671661,219.048401 218.697403,217.665771 217.419556,216.674454 
	C204.897903,206.960556 191.706497,198.052200 181.392151,185.735703 
	C179.745712,183.769653 177.228729,182.532654 175.114212,180.958603 
	C175.114212,180.958603 175.045715,180.952087 175.035019,180.536865 
	C174.018219,177.695740 173.251282,175.134155 171.965332,172.866974 
	C165.815918,162.025467 163.661133,150.861618 168.652557,138.952591 
	C170.377716,134.836502 172.026154,130.688248 173.709641,126.554695 
	C173.709641,126.554695 173.853485,126.239471 174.281158,125.999237 
	C176.221542,124.039902 178.236649,122.552353 179.155212,120.559410 
	C182.231384,113.885094 185.792542,107.244438 187.516785,100.187439 
	C189.448120,92.282883 185.638245,85.744904 178.964920,81.068665 
	C186.961304,78.283691 194.886139,75.267952 202.968903,72.761520 
	C220.097122,67.450104 237.651367,65.121506 256.091187,66.064545 
	C251.460587,82.513771 242.235977,95.661865 226.784073,104.086060 
	C221.996124,106.696396 217.464676,109.882454 213.148285,113.233223 
	C199.036423,124.188133 200.164276,144.326736 215.711273,153.197479 
	C220.271881,155.799652 226.029755,156.303497 231.666840,157.681549 
	C232.831406,157.651108 233.568054,157.708145 234.982544,157.877396 
	C237.416138,157.902679 239.171890,157.815750 240.927628,157.728806 
	C241.374405,157.729004 241.821182,157.729202 243.022232,157.751389 
	C250.870178,156.154617 258.401215,155.528946 264.939667,152.649490 
	C272.075409,149.507034 278.999847,145.046219 284.734650,139.767593 
	C292.366486,132.742813 298.759918,124.372627 305.685394,116.580429 
	C306.347687,116.219276 307.009949,115.858116 308.225281,115.221100 
	C311.469299,113.892235 314.160248,112.839211 317.166748,111.769768 
	C318.264404,111.471870 319.046448,111.190384 319.828522,110.908890 
	C320.958374,110.539688 322.088226,110.170494 323.839783,109.751175 
	C324.984406,109.524429 325.507324,109.347794 326.030273,109.171158 
	C326.766785,109.118805 327.503326,109.066460 328.984192,108.982544 
	C330.509277,108.981209 331.289978,109.011444 332.250275,109.093445 
	C332.902496,109.039612 333.375122,108.934013 333.911926,108.661148 
	C333.976105,108.493889 334.039398,108.141235 334.039398,108.141235 
	C335.732147,108.034584 337.424866,107.927940 339.914429,107.828613 
	C341.495514,107.866142 342.279785,107.896339 343.161255,107.960968 
	C343.473633,108.020714 343.661255,107.960670 343.892151,107.652512 
	C343.963013,107.489746 344.042084,107.143608 344.042084,107.143616 
	C344.476013,107.122887 344.909912,107.102150 346.066711,107.085098 
	C348.861542,106.751839 350.933502,106.414909 353.005463,106.077988 
	C354.354950,105.982750 355.704407,105.887505 357.458008,105.769592 
	C374.149994,116.086456 385.494843,131.017929 394.807861,147.363190 
	C403.356262,162.366455 410.133759,178.295135 413.024292,195.559204 
	C413.900421,200.791870 414.734344,206.031586 415.703552,211.631775 
	C416.230621,232.747131 414.762573,253.272614 407.720337,273.004456 
	C406.802216,275.576935 404.429779,277.630341 402.128479,279.805298 
	C399.131897,277.640839 396.737732,275.595276 394.343567,273.549744 
	C394.343567,273.549744 394.175537,273.258942 393.986084,272.829163 
	C392.942474,271.501190 392.088318,270.603058 391.234192,269.704895 
	C391.234192,269.704895 391.056091,269.351471 390.862061,268.859253 
	C379.805389,251.485138 374.463043,232.520752 369.649231,213.311966 
	C368.046387,206.915939 365.586151,200.734772 363.517883,194.455383 
	C363.426361,194.121948 363.334839,193.788513 363.101685,192.843903 
	C359.778656,186.314621 356.597290,180.396484 353.415924,174.478348 
	C353.268280,174.234940 353.087219,174.019623 352.539490,173.406311 
	C346.295990,167.032913 340.816071,166.564941 334.848633,172.235733 
	C331.396729,175.516037 328.156128,179.302933 325.825958,183.429611 
	C316.270264,200.352829 313.146606,219.370026 308.784302,237.966736 
	C308.645508,238.269623 308.535370,238.582596 308.210022,239.433136 
	C307.035889,242.657410 306.105621,245.354218 305.175354,248.051041 
	C304.865204,248.831116 304.555054,249.611191 303.942322,250.948654 
	C300.106262,259.672913 296.572693,267.839813 293.039124,276.006714 
	C292.929047,276.345123 292.818939,276.683533 292.421875,277.532959 
	C290.313477,284.080444 288.492004,290.116882 286.670502,296.153351 
	C286.560059,296.572693 286.449646,296.992065 286.120544,298.099854 
	C285.981995,304.871368 285.181732,311.127563 286.336212,316.999420 
	C288.372406,327.355682 293.753693,336.003113 303.050446,341.725159 
	C303.469208,342.122681 303.887970,342.520203 304.729187,343.343506 
	C311.440002,346.822632 317.728394,349.876007 324.016785,352.929382 
	C324.597748,353.111298 325.178711,353.293182 326.281982,353.728638 
	C327.566803,354.190125 328.329315,354.398071 329.091827,354.605988 
	C330.799377,355.071320 332.506958,355.536652 334.840088,356.178894 
	C336.022491,356.420563 336.579346,356.485382 337.136169,356.550171 
	C337.136169,356.550171 337.136108,356.735840 337.135803,356.828918 
	C333.521057,359.662994 330.215149,363.004669 326.241364,365.046234 
	C302.916046,377.029663 277.775482,381.800201 251.809647,382.741394 
	C245.865234,382.956848 239.886688,382.229980 233.462555,381.947083 
M216.803375,170.344025 
	C213.730270,166.681595 211.407623,166.765152 206.115921,170.998795 
	C205.757492,171.376892 205.399063,171.754990 204.463013,172.429901 
	C201.566055,176.498001 202.985413,180.190216 207.746826,180.972137 
	C212.784500,181.799454 216.034241,178.973663 216.960114,172.344543 
	C216.913239,171.895004 216.866348,171.445450 216.803375,170.344025 
M297.018799,196.415146 
	C295.356628,189.974304 293.764771,183.514145 292.004272,177.100281 
	C291.042725,173.597183 289.118164,173.010742 285.619690,174.584930 
	C280.046997,177.092392 274.205627,179.043091 268.385559,180.947052 
	C264.119812,182.342560 259.656555,183.128601 255.373474,184.478653 
	C251.758926,185.617966 247.424469,186.658844 247.252548,191.389252 
	C247.083740,196.033646 251.255539,197.564911 254.711639,199.119156 
	C258.195953,200.686081 261.787384,202.132385 265.469025,203.120270 
	C275.580444,205.833344 283.362976,210.771439 286.156433,221.744644 
	C286.621368,223.570938 289.479523,226.014694 291.171448,225.968399 
	C292.984314,225.918777 295.377960,223.606094 296.384674,221.686615 
	C300.538239,213.767044 298.703308,205.466614 297.018799,196.415146 
M304.405762,132.858368 
	C298.603271,134.486237 297.565308,139.047028 298.544373,143.896606 
	C299.687958,149.561005 301.757355,155.040283 303.458130,160.589737 
	C304.455505,163.843903 305.490479,167.090271 309.907074,166.874664 
	C314.128906,166.668564 316.105408,163.841446 317.037506,160.294312 
	C319.152771,152.244766 318.111267,144.458679 314.245514,137.105545 
	C312.339020,133.479156 309.307007,131.830917 304.405762,132.858368 
M260.458649,246.214722 
	C260.194672,252.281586 259.808563,258.346924 259.732910,264.416138 
	C259.706421,266.542328 259.756317,269.754852 260.998749,270.547546 
	C262.703552,271.635254 266.011688,271.742859 267.876526,270.790161 
	C277.623596,265.810638 283.054260,257.658142 283.780731,246.644730 
	C283.867645,245.327164 283.312500,243.502426 282.379730,242.663742 
	C278.567444,239.235809 274.588226,235.972610 270.487213,232.892822 
	C266.709747,230.056000 262.853790,231.007523 261.358429,235.519669 
	C260.353149,238.553009 260.665985,242.023178 260.458649,246.214722 
z"/>
<path fill="#6DBFBB" opacity="1.000000" stroke="none" 
	d="
M175.193329,181.292725 
	C177.228729,182.532654 179.745712,183.769653 181.392151,185.735703 
	C191.706497,198.052200 204.897903,206.960556 217.419556,216.674454 
	C218.697403,217.665771 219.671661,219.048401 220.903091,220.557190 
	C205.778030,210.528580 189.912918,200.957169 178.265732,186.197418 
	C177.141968,184.773331 176.264328,183.155014 175.193329,181.292725 
z"/>
<path fill="#6DBFBB" opacity="1.000000" stroke="none" 
	d="
M173.432297,126.750732 
	C172.026154,130.688248 170.377716,134.836502 168.652557,138.952591 
	C163.661133,150.861618 165.815918,162.025467 171.965332,172.866974 
	C173.251282,175.134155 174.018219,177.695740 175.040237,180.502869 
	C162.622894,166.818939 158.747986,144.292999 173.432297,126.750732 
z"/>
<path fill="#6DBFBB" opacity="1.000000" stroke="none" 
	d="
M178.757355,81.239937 
	C185.638245,85.744904 189.448120,92.282883 187.516785,100.187439 
	C185.792542,107.244438 182.231384,113.885094 179.155212,120.559410 
	C178.236649,122.552353 176.221542,124.039902 174.396271,125.869766 
	C177.661636,119.293427 181.861755,112.855583 184.665146,105.858162 
	C188.443756,96.426521 185.674164,89.148643 177.270813,83.197495 
	C177.543350,82.443352 178.046570,81.927277 178.757355,81.239937 
z"/>
<path fill="#6DBFBB" opacity="1.000000" stroke="none" 
	d="
M230.272552,229.238541 
	C241.344589,234.187042 243.276245,249.890213 233.246506,256.834656 
	C233.717682,255.697449 234.473221,254.425018 235.314209,253.211823 
	C239.386200,247.337555 239.551804,242.778442 235.655350,236.728104 
	C234.052414,234.239075 232.157089,231.938354 230.272552,229.238541 
z"/>
<path fill="#6DBFBB" opacity="1.000000" stroke="none" 
	d="
M232.613632,257.024536 
	C232.592911,261.343567 229.409607,262.406433 225.419601,262.990356 
	C227.455582,261.051086 229.872025,259.086853 232.613632,257.024536 
z"/>
<path fill="#6DBFBB" opacity="1.000000" stroke="none" 
	d="
M221.673218,221.543777 
	C223.263046,222.596375 225.025833,223.937561 226.905350,225.594482 
	C225.296783,224.550934 223.571487,223.191650 221.673218,221.543777 
z"/>
<path fill="#4BA07D" opacity="1.000000" stroke="none" 
	d="
M309.016541,237.703369 
	C313.146606,219.370026 316.270264,200.352829 325.825958,183.429611 
	C328.156128,179.302933 331.396729,175.516037 334.848633,172.235733 
	C340.816071,166.564941 346.295990,167.032913 352.369690,173.280014 
	C351.888733,173.425858 351.193359,173.379333 350.607574,173.101654 
	C342.887756,169.441849 336.983063,170.392227 332.287903,177.492447 
	C328.032043,183.928314 324.091736,190.831192 321.526337,198.065109 
	C317.816193,208.526779 315.547577,219.494446 312.488403,230.196060 
	C311.768738,232.713669 310.347382,235.030685 309.016541,237.703369 
z"/>
<path fill="#4BA07D" opacity="1.000000" stroke="none" 
	d="
M363.453217,194.885208 
	C365.586151,200.734772 368.046387,206.915939 369.649231,213.311966 
	C374.463043,232.520752 379.805389,251.485138 390.738678,268.704498 
	C388.827881,266.651031 386.409119,264.501007 384.937103,261.829376 
	C376.527191,246.565613 371.488678,230.099030 367.928070,213.108063 
	C366.673828,207.122787 364.916321,201.242981 363.453217,194.885208 
z"/>
<path fill="#4BA07D" opacity="1.000000" stroke="none" 
	d="
M302.931396,341.425446 
	C293.753693,336.003113 288.372406,327.355682 286.336212,316.999420 
	C285.181732,311.127563 285.981995,304.871368 286.087585,298.423737 
	C286.488708,299.531281 287.009125,301.032318 286.872467,302.470947 
	C285.476166,317.168060 291.194122,329.004730 301.351349,339.118927 
	C301.930359,339.695465 302.329498,340.452637 302.931396,341.425446 
z"/>
<path fill="#4BA07D" opacity="1.000000" stroke="none" 
	d="
M293.339355,275.851624 
	C296.572693,267.839813 300.106262,259.672913 303.886627,251.259567 
	C303.799225,253.115097 303.921051,255.432739 303.047668,257.279816 
	C300.102295,263.508850 296.803345,269.570709 293.339355,275.851624 
z"/>
<path fill="#4BA07D" opacity="1.000000" stroke="none" 
	d="
M323.822723,352.659973 
	C317.728394,349.876007 311.440002,346.822632 304.979279,343.489868 
	C311.080872,346.270508 317.354767,349.330505 323.822723,352.659973 
z"/>
<path fill="#4BA07D" opacity="1.000000" stroke="none" 
	d="
M353.457764,174.846680 
	C356.597290,180.396484 359.778656,186.314621 362.981873,192.613281 
	C359.835693,187.067566 356.667633,181.141296 353.457764,174.846680 
z"/>
<path fill="#4BA07D" opacity="1.000000" stroke="none" 
	d="
M286.908203,295.937012 
	C288.492004,290.116882 290.313477,284.080444 292.382751,277.797455 
	C290.802338,283.607513 288.974091,289.664093 286.908203,295.937012 
z"/>
<path fill="#4BA07D" opacity="1.000000" stroke="none" 
	d="
M394.399689,273.901855 
	C396.737732,275.595276 399.131897,277.640839 401.788300,279.910217 
	C402.050537,280.134064 402.000824,280.605865 401.984406,280.842773 
	C399.463928,278.804413 396.959869,276.529205 394.399689,273.901855 
z"/>
<path fill="#4BA07D" opacity="1.000000" stroke="none" 
	d="
M305.484741,247.899002 
	C306.105621,245.354218 307.035889,242.657410 308.167084,239.678497 
	C307.510071,242.179932 306.652100,244.963440 305.484741,247.899002 
z"/>
<path fill="#4BA07D" opacity="1.000000" stroke="none" 
	d="
M391.279480,270.030914 
	C392.088318,270.603058 392.942474,271.501190 393.872833,272.705139 
	C393.074310,272.126282 392.199554,271.241608 391.279480,270.030914 
z"/>
<path fill="#4BA07D" opacity="1.000000" stroke="none" 
	d="
M337.004150,356.397827 
	C336.579346,356.485382 336.022491,356.420563 335.220428,356.210693 
	C335.607513,356.125549 336.239807,356.185516 337.004150,356.397827 
z"/>
<path fill="#4BA07D" opacity="1.000000" stroke="none" 
	d="
M328.870636,354.403748 
	C328.329315,354.398071 327.566803,354.190125 326.583923,353.770966 
	C327.125519,353.773651 327.887482,353.987579 328.870636,354.403748 
z"/>
<path fill="#4A9E78" opacity="1.000000" stroke="none" 
	d="
M305.314850,116.592163 
	C298.759918,124.372627 292.366486,132.742813 284.734650,139.767593 
	C278.999847,145.046219 272.075409,149.507034 264.939667,152.649490 
	C258.401215,155.528946 250.870178,156.154617 243.352509,157.692200 
	C245.400284,156.693436 247.809067,155.245850 250.353958,154.943420 
	C268.123779,152.831543 280.835083,143.186554 291.207123,129.159195 
	C294.826416,124.264427 300.311371,120.749168 305.314850,116.592163 
z"/>
<path fill="#4A9E78" opacity="1.000000" stroke="none" 
	d="
M316.851166,111.786179 
	C314.160248,112.839211 311.469299,113.892235 308.432098,115.025955 
	C310.877472,113.648544 313.669159,112.190430 316.713165,111.039490 
	C316.965515,111.346657 316.851166,111.786186 316.851166,111.786179 
z"/>
<path fill="#4A9E78" opacity="1.000000" stroke="none" 
	d="
M352.677917,105.935181 
	C350.933502,106.414909 348.861542,106.751839 346.387146,107.022812 
	C348.106598,106.568703 350.228485,106.180542 352.677917,105.935181 
z"/>
<path fill="#4A9E78" opacity="1.000000" stroke="none" 
	d="
M240.617645,157.597610 
	C239.171890,157.815750 237.416138,157.902679 235.352142,157.850647 
	C236.798462,157.629929 238.553070,157.548172 240.617645,157.597610 
z"/>
<path fill="#4A9E78" opacity="1.000000" stroke="none" 
	d="
M332.070709,109.041672 
	C331.289978,109.011444 330.509277,108.981209 329.342407,108.891602 
	C330.461060,108.506393 331.965851,108.180565 333.755005,107.997986 
	C334.039398,108.141235 333.976105,108.493889 333.612549,108.655151 
	C332.856262,108.891502 332.463470,108.966591 332.070709,109.041672 
z"/>
<path fill="#4A9E78" opacity="1.000000" stroke="none" 
	d="
M343.786560,107.016563 
	C344.042084,107.143608 343.963013,107.489746 343.699768,107.654678 
	C343.436523,107.819611 343.064056,107.926544 343.064056,107.926544 
	C342.279785,107.896339 341.495514,107.866142 340.330322,107.743774 
	C341.143280,107.397568 342.337158,107.143547 343.786560,107.016563 
z"/>
<path fill="#4A9E78" opacity="1.000000" stroke="none" 
	d="
M325.849213,109.087112 
	C325.507324,109.347794 324.984406,109.524429 324.184570,109.653534 
	C324.494507,109.405037 325.081329,109.204056 325.849213,109.087112 
z"/>
<path fill="#77AFB8" opacity="1.000000" stroke="none" 
	d="
M317.166748,111.769775 
	C316.851166,111.786186 316.965515,111.346657 317.025879,111.127281 
	C317.774506,110.876945 318.462738,110.845985 319.489746,110.861961 
	C319.046448,111.190384 318.264404,111.471870 317.166748,111.769775 
z"/>
<path fill="#6DBFBB" opacity="1.000000" stroke="none" 
	d="
M188.341095,289.794373 
	C189.678162,288.395599 191.147491,286.372894 193.110794,285.591827 
	C200.796890,282.534180 208.648560,279.894806 216.420120,277.049286 
	C222.699905,274.749969 226.497757,277.414368 224.576477,283.770874 
	C222.902771,289.308258 219.912872,294.768402 216.320602,299.330383 
	C210.889877,306.227112 207.670578,313.748993 206.226868,322.624603 
	C204.289459,315.579224 207.023300,309.305725 210.942825,303.311157 
	C214.836014,297.356842 218.903610,291.499420 222.430435,285.333923 
	C223.392990,283.651154 222.683670,281.012115 222.741608,278.811920 
	C220.539688,278.951019 218.160355,278.596680 216.166183,279.313690 
	C206.952271,282.626373 197.845505,286.237030 188.341095,289.794373 
z"/>
<path fill="#6DBFBB" opacity="1.000000" stroke="none" 
	d="
M206.418365,326.338135 
	C213.459976,339.658813 218.634857,353.927032 219.299347,369.462769 
	C219.398926,371.790985 218.173477,374.175903 217.316589,376.774628 
	C218.277985,363.183624 214.317108,350.390076 209.383789,337.741760 
	C208.007523,334.213226 207.346985,330.405548 206.418365,326.338135 
z"/>
<path fill="#6DBFBB" opacity="1.000000" stroke="none" 
	d="
M161.359650,309.903687 
	C164.504257,300.868805 172.143509,296.592896 181.027679,293.275482 
	C174.824844,298.732574 168.239426,304.240265 161.359650,309.903687 
z"/>
<path fill="#6DBFBB" opacity="1.000000" stroke="none" 
	d="
M182.310303,292.921844 
	C182.676682,292.480591 183.360931,291.989471 184.366577,291.433350 
	C184.001358,291.869537 183.314758,292.370758 182.310303,292.921844 
z"/>
<path fill="#6DBFBB" opacity="1.000000" stroke="none" 
	d="
M216.752472,379.152618 
	C217.126846,379.151520 217.399841,379.344025 217.865784,379.694763 
	C217.812027,379.843414 217.565323,379.833832 216.948486,379.800720 
	C216.578369,379.777191 216.651093,379.346222 216.752472,379.152618 
z"/>
<path fill="#231D20" opacity="1.000000" stroke="none" 
	d="
M486.253601,90.423584 
	C484.933746,92.289719 483.597351,93.883835 482.260986,95.477959 
	C482.911255,89.813812 483.263550,89.475136 486.253601,90.423584 
z"/>
<path fill="#231D20" opacity="1.000000" stroke="none" 
	d="
M493.000610,81.999298 
	C494.632721,82.323952 496.264191,82.649315 498.421570,83.079544 
	C495.508942,85.531281 495.508942,85.531281 493.117554,82.310287 
	C492.998779,82.001274 493.000000,82.000000 493.000610,81.999298 
z"/>
<path fill="#231D20" opacity="1.000000" stroke="none" 
	d="
M497.998169,110.001923 
	C496.557007,109.756317 495.117645,109.508781 493.339172,109.130623 
	C493.000000,109.000000 493.001221,108.998474 493.001221,108.998474 
	C494.805939,106.767456 496.520264,105.653801 497.922852,109.693100 
	C498.003418,109.996132 498.000000,110.000000 497.998169,110.001923 
z"/>
<path fill="#231D20" opacity="1.000000" stroke="none" 
	d="
M507.998322,77.001152 
	C507.338593,75.436668 506.680511,73.871025 506.022461,72.305389 
	C506.530151,72.172684 507.037842,72.039978 507.545563,71.907272 
	C507.695801,73.358482 507.846039,74.809692 507.999939,76.628616 
	C508.003662,76.996338 508.000000,77.000000 507.998322,77.001152 
z"/>
<path fill="#231D20" opacity="1.000000" stroke="none" 
	d="
M492.999390,109.000259 
	C492.998779,109.000526 492.969910,108.905281 492.985565,108.951874 
	C493.001221,108.998474 493.000000,109.000000 492.999390,109.000259 
z"/>
<path fill="#252022" opacity="1.000000" stroke="none" 
	d="
M509.372650,79.945435 
	C509.397522,79.902466 509.609314,80.125847 509.609314,80.125847 
	C509.609314,80.125847 509.347778,79.988411 509.372650,79.945435 
z"/>
<path fill="#4E484C" opacity="1.000000" stroke="none" 
	d="
M505.690918,99.954559 
	C505.720764,99.980751 505.661072,99.928383 505.690918,99.954559 
z"/>
<path fill="#4E484C" opacity="1.000000" stroke="none" 
	d="
M503.517090,103.614288 
	C503.857788,103.458008 504.198517,103.301712 504.539215,103.145416 
	C504.537872,103.428459 504.536530,103.711502 504.227051,103.981308 
	C503.784943,103.850136 503.651031,103.732216 503.517090,103.614288 
z"/>
<path fill="#4E484C" opacity="1.000000" stroke="none" 
	d="
M501.653290,107.684769 
	C501.886261,107.493446 502.119232,107.302116 502.352173,107.110779 
	C502.372375,107.388252 502.392609,107.665726 502.162201,107.940170 
	C501.911591,107.937134 501.653290,107.684761 501.653290,107.684769 
z"/>
<path fill="#4E484C" opacity="1.000000" stroke="none" 
	d="
M499.960236,110.961800 
	C499.960236,110.961800 499.901794,111.337196 499.901794,111.337196 
	C499.901794,111.337196 499.905487,111.120651 499.947998,111.059471 
	C499.990540,110.998291 499.960236,110.961800 499.960236,110.961800 
z"/>
<path fill="#252022" opacity="1.000000" stroke="none" 
	d="
M508.496826,62.515007 
	C508.512421,62.512829 508.481262,62.517181 508.496826,62.515007 
z"/>
<path fill="#252022" opacity="1.000000" stroke="none" 
	d="
M495.997223,68.002495 
	C495.994446,68.004990 495.980164,67.963379 495.992554,67.979019 
	C496.004913,67.994667 496.000000,68.000000 495.997223,68.002495 
z"/>
<path fill="#252022" opacity="1.000000" stroke="none" 
	d="
M510.485718,72.496918 
	C510.487885,72.512459 510.483521,72.481384 510.485718,72.496918 
z"/>
<path fill="#4E484C" opacity="1.000000" stroke="none" 
	d="
M504.117432,104.147530 
	C504.003052,104.198616 503.690125,104.070236 503.447144,103.778069 
	C503.651031,103.732216 503.784943,103.850136 504.117432,104.147530 
z"/>
<path fill="#4E484C" opacity="1.000000" stroke="none" 
	d="
M502.041077,108.062988 
	C502.170532,108.188843 501.754669,108.271675 501.754669,108.271675 
	C501.754669,108.271675 501.574219,107.902504 501.613770,107.793633 
	C501.653290,107.684761 501.911591,107.937134 502.041077,108.062988 
z"/>
<path fill="#000000" opacity="1.000000" stroke="none" 
	d="
M521.992981,108.989380 
	C521.983032,108.981468 521.987061,109.034691 522.001953,109.026413 
	C522.016846,109.018127 522.002930,108.997284 521.992981,108.989380 
z"/>
<path fill="#4E484C" opacity="1.000000" stroke="none" 
	d="
M500.006958,111.015358 
	C500.023376,111.032425 500.017700,110.982300 499.988953,110.972046 
	C499.960236,110.961800 499.990540,110.998291 500.006958,111.015358 
z"/>
<path fill="#459756" opacity="1.000000" stroke="none" 
	d="
M297.100922,196.834290 
	C298.703308,205.466614 300.538239,213.767044 296.384674,221.686615 
	C295.377960,223.606094 292.984314,225.918777 291.171448,225.968399 
	C289.479523,226.014694 286.621368,223.570938 286.156433,221.744644 
	C283.362976,210.771439 275.580444,205.833344 265.469025,203.120270 
	C261.787384,202.132385 258.195953,200.686081 254.711639,199.119156 
	C251.255539,197.564911 247.083740,196.033646 247.252548,191.389252 
	C247.424469,186.658844 251.758926,185.617966 255.373474,184.478653 
	C259.656555,183.128601 264.119812,182.342560 268.385559,180.947052 
	C274.205627,179.043091 280.046997,177.092392 285.619690,174.584930 
	C289.118164,173.010742 291.042725,173.597183 292.004272,177.100281 
	C293.764771,183.514145 295.356628,189.974304 297.100922,196.834290 
z"/>
<path fill="#449858" opacity="1.000000" stroke="none" 
	d="
M304.774292,132.770309 
	C309.307007,131.830917 312.339020,133.479156 314.245514,137.105545 
	C318.111267,144.458679 319.152771,152.244766 317.037506,160.294312 
	C316.105408,163.841446 314.128906,166.668564 309.907074,166.874664 
	C305.490479,167.090271 304.455505,163.843903 303.458130,160.589737 
	C301.757355,155.040283 299.687958,149.561005 298.544373,143.896606 
	C297.565308,139.047028 298.603271,134.486237 304.774292,132.770309 
z"/>
<path fill="#479C74" opacity="1.000000" stroke="none" 
	d="
M260.423889,245.756317 
	C260.665985,242.023178 260.353149,238.553009 261.358429,235.519669 
	C262.853790,231.007523 266.709747,230.056000 270.487213,232.892822 
	C274.588226,235.972610 278.567444,239.235809 282.379730,242.663742 
	C283.312500,243.502426 283.867645,245.327164 283.780731,246.644730 
	C283.054260,257.658142 277.623596,265.810638 267.876526,270.790161 
	C266.011688,271.742859 262.703552,271.635254 260.998749,270.547546 
	C259.756317,269.754852 259.706421,266.542328 259.732910,264.416138 
	C259.808563,258.346924 260.194672,252.281586 260.423889,245.756317 
M276.526611,260.975739 
	C281.145416,256.846741 281.200378,250.992203 280.875031,245.777557 
	C280.729828,243.449997 276.502686,241.372360 274.118500,239.191803 
	C273.262054,238.408478 272.488068,237.428055 271.481384,236.939301 
	C269.660858,236.055389 267.308899,234.488403 265.895355,235.040665 
	C264.462921,235.600296 263.145050,238.353302 263.081726,240.190598 
	C262.796326,248.468170 262.895416,256.763336 263.067932,265.047760 
	C263.094666,266.332367 264.031006,268.477173 264.884430,268.661652 
	C266.199097,268.945770 268.034485,268.193604 269.240387,267.318237 
	C271.642822,265.574341 273.767456,263.447693 276.526611,260.975739 
z"/>
<path fill="#429653" opacity="1.000000" stroke="none" 
	d="
M205.040649,172.133087 
	C205.399063,171.754990 205.757492,171.376892 206.752518,170.835007 
	C210.532562,170.779449 213.676025,170.887680 216.819473,170.995911 
	C216.866348,171.445450 216.913239,171.895004 216.662842,172.878311 
	C213.742676,174.793228 211.218491,176.574982 208.424896,177.263062 
	C207.758423,177.427216 206.192734,173.940567 205.040649,172.133087 
z"/>
<path fill="#469C79" opacity="1.000000" stroke="none" 
	d="
M204.751831,172.281494 
	C206.192734,173.940567 207.758423,177.427216 208.424896,177.263062 
	C211.218491,176.574982 213.742676,174.793228 216.628204,173.216522 
	C216.034241,178.973663 212.784500,181.799454 207.746826,180.972137 
	C202.985413,180.190216 201.566055,176.498001 204.751831,172.281494 
z"/>
<path fill="#469C79" opacity="1.000000" stroke="none" 
	d="
M216.811432,170.669968 
	C213.676025,170.887680 210.532562,170.779449 206.971268,170.692001 
	C211.407623,166.765152 213.730270,166.681595 216.811432,170.669968 
z"/>
<path fill="#77AFB8" opacity="1.000000" stroke="none" 
	d="
M332.250275,109.093445 
	C332.463470,108.966591 332.856262,108.891502 333.548401,108.822418 
	C333.375122,108.934013 332.902496,109.039612 332.250275,109.093445 
z"/>
<path fill="#77AFB8" opacity="1.000000" stroke="none" 
	d="
M343.161255,107.960968 
	C343.064056,107.926544 343.436523,107.819611 343.628906,107.817444 
	C343.661255,107.960670 343.473633,108.020714 343.161255,107.960968 
z"/>
<path fill="#45964E" opacity="1.000000" stroke="none" 
	d="
M276.266724,261.227448 
	C273.767456,263.447693 271.642822,265.574341 269.240387,267.318237 
	C268.034485,268.193604 266.199097,268.945770 264.884430,268.661652 
	C264.031006,268.477173 263.094666,266.332367 263.067932,265.047760 
	C262.895416,256.763336 262.796326,248.468170 263.081726,240.190598 
	C263.145050,238.353302 264.462921,235.600296 265.895355,235.040665 
	C267.308899,234.488403 269.660858,236.055389 271.481384,236.939301 
	C272.488068,237.428055 273.262054,238.408478 274.118500,239.191803 
	C276.502686,241.372360 280.729828,243.449997 280.875031,245.777557 
	C281.200378,250.992203 281.145416,256.846741 276.266724,261.227448 
z"/>
</svg>